<?xml version="1.0" encoding="UTF-8" standalone="no"?>
<svg width="48px" height="48px" viewBox="0 0 48 48" version="1.1" xmlns="http://www.w3.org/2000/svg" xmlns:xlink="http://www.w3.org/1999/xlink">
    <!-- Generator: Sketch 45.2 (43514) - http://www.bohemiancoding.com/sketch -->
    <title>icon-instagram</title>
    <desc>Created with Sketch.</desc>
    <defs></defs>
    <g id="Symbols" stroke="none" stroke-width="1" fill="none" fill-rule="evenodd">
        <g id="icon-instagram" fill="#2D2D2D">
            <g transform="translate(9.000000, 9.000000)">
                <path d="M15,28 C22.18,28 28,22.18 28,15 C28,7.82 22.18,2 15,2 C7.82,2 2,7.82 2,15 C2,22.18 7.82,28 15,28 M15,30 C6.716,30 0,23.284 0,15 C0,6.716 6.716,0 15,0 C23.284,0 30,6.716 30,15 C30,23.284 23.284,30 15,30" id="Page-1"></path>
                <path d="M20.6,19.2 C20.6,19.97 19.9728,20.6 19.2,20.6 L10.8,20.6 C10.0265,20.6 9.4,19.97 9.4,19.2 L9.4,14.3 L10.87,14.3 C10.8322,14.524 10.8,14.762 10.8,15 C10.8,17.317 12.6802,19.2 15,19.2 C17.3191,19.2 19.2,17.317 19.2,15 C19.2,14.762 19.1685,14.524 19.1293,14.3 L20.6,14.3 L20.6,19.2 Z M15,12.2 C16.5463,12.2 17.8,13.453 17.8,15 C17.8,16.547 16.5463,17.8 15,17.8 C13.4537,17.8 12.2,16.547 12.2,15 C12.2,13.453 13.4537,12.2 15,12.2 Z M17.8,12.2 L19.9,12.2 L19.9,10.1 L17.8,10.1 L17.8,12.2 Z M19.2,8 L10.8,8 C9.2537,8 8,9.253 8,10.8 L8,19.2 C8,20.747 9.2537,22 10.8,22 L19.2,22 C20.7463,22 22,20.747 22,19.2 L22,10.8 C22,9.253 20.7463,8 19.2,8 Z" id="Fill-260"></path>
            </g>
        </g>
    </g>
</svg>