<svg width="48" height="48" viewBox="0 0 48 48" xmlns="http://www.w3.org/2000/svg"><title>icon-instagram</title><g fill="#2D2D2D" fill-rule="evenodd"><path d="M24 37c7.18 0 13-5.82 13-13s-5.82-13-13-13-13 5.82-13 13 5.82 13 13 13m0 2c-8.284 0-15-6.716-15-15 0-8.284 6.716-15 15-15 8.284 0 15 6.716 15 15 0 8.284-6.716 15-15 15"/><path d="M29.6 28.2c0 .77-.627 1.4-1.4 1.4h-8.4c-.774 0-1.4-.63-1.4-1.4v-4.9h1.47c-.038.224-.07.462-.07.7 0 2.317 1.88 4.2 4.2 4.2 2.32 0 4.2-1.883 4.2-4.2a4.09 4.09 0 0 0-.07-.7h1.47v4.9zm-5.6-7a2.8 2.8 0 1 1 0 5.6 2.8 2.8 0 0 1 0-5.6zm2.8 0h2.1v-2.1h-2.1v2.1zm1.4-4.2h-8.4a2.8 2.8 0 0 0-2.8 2.8v8.4a2.8 2.8 0 0 0 2.8 2.8h8.4a2.8 2.8 0 0 0 2.8-2.8v-8.4a2.8 2.8 0 0 0-2.8-2.8z"/></g></svg>