<svg width="48" height="48" viewBox="0 0 48 48" xmlns="http://www.w3.org/2000/svg"><title>icon-stylist</title><g transform="translate(10.733 17)" fill="#2D2D2D" fill-rule="evenodd"><path d="M14.22 8.34c-.743-.47-2.159-.47-2.9 0l-5.799 3.673h14.498l-5.8-3.674zm-3.99-1.672c1.403-.889 3.671-.892 5.08 0l9.034 5.723c1.403.889 1.179 1.609-.48 1.609H1.676c-1.669 0-1.89-.717-.482-1.609l9.035-5.723z" fill-rule="nonzero"/><path d="M11.987 5h1.998v3h-1.998z"/><path d="M12.986 4a1 1 0 1 0-1-1c0 .552-.637.638-.998 1l-.999-1c0-1.657 1.342-3 2.997-3a2.998 2.998 0 0 1 2.996 3c0 1.657-2.34 3-3.995 3V5s0-1 .999-1z" fill-rule="nonzero"/><ellipse cx="14.984" cy="3" rx="1" ry="1"/></g></svg>