<svg width="48" height="48" viewBox="0 0 48 48" xmlns="http://www.w3.org/2000/svg"><title>icon-youtube</title><g fill="#2D2D2D" fill-rule="evenodd"><path d="M23 37c7.18 0 13-5.82 13-13s-5.82-13-13-13-13 5.82-13 13 5.82 13 13 13m0 2c-8.284 0-15-6.716-15-15 0-8.284 6.716-15 15-15 8.284 0 15 6.716 15 15 0 8.284-6.716 15-15 15"/><path d="M31.82 20.75s-.176-1.249-.715-1.799c-.685-.722-1.452-.726-1.804-.767C26.782 18 23.004 18 23.004 18h-.008s-3.778 0-6.297.184c-.352.041-1.119.045-1.804.767-.54.55-.715 1.8-.715 1.8S14 22.216 14 23.683v1.376c0 1.467.18 2.933.18 2.933s.176 1.25.715 1.8c.685.722 1.585.7 1.985.775 1.44.139 6.12.182 6.12.182s3.782-.006 6.301-.19c.352-.042 1.119-.045 1.804-.767.539-.55.715-1.8.715-1.8s.18-1.466.18-2.933v-1.376c0-1.467-.18-2.934-.18-2.934zm-10.678 5.976l-.001-5.093 4.863 2.555-4.863 2.538z"/></g></svg>