<?xml version="1.0" encoding="UTF-8" standalone="no"?>
<svg width="48px" height="48px" viewBox="0 0 48 48" version="1.1" xmlns="http://www.w3.org/2000/svg" xmlns:xlink="http://www.w3.org/1999/xlink">
    <!-- Generator: Sketch 45.2 (43514) - http://www.bohemiancoding.com/sketch -->
    <title>icon-youtube</title>
    <desc>Created with Sketch.</desc>
    <defs></defs>
    <g id="Symbols" stroke="none" stroke-width="1" fill="none" fill-rule="evenodd">
        <g id="icon-youtube" fill="#2D2D2D">
            <g transform="translate(8.000000, 9.000000)">
                <path d="M15,28 C22.18,28 28,22.18 28,15 C28,7.82 22.18,2 15,2 C7.82,2 2,7.82 2,15 C2,22.18 7.82,28 15,28 M15,30 C6.716,30 0,23.284 0,15 C0,6.716 6.716,0 15,0 C23.284,0 30,6.716 30,15 C30,23.284 23.284,30 15,30" id="Page-1"></path>
                <path d="M23.82,11.7502031 C23.82,11.7502031 23.6439375,10.5010313 23.1045,9.95104687 C22.4199375,9.22879688 21.6526875,9.22542188 21.301125,9.18351563 C18.78225,9 15.0039375,9 15.0039375,9 L14.9960625,9 C14.9960625,9 11.21775,9 8.698875,9.18351563 C8.34675,9.22542188 7.5800625,9.22879688 6.8949375,9.95104687 C6.3555,10.5011719 6.18,11.7502031 6.18,11.7502031 C6.18,11.7502031 6,13.2174844 6,14.6840625 L6,16.0595156 C6,17.5266563 6.18,18.993375 6.18,18.993375 C6.18,18.993375 6.3555,20.2425469 6.8949375,20.7925313 C7.5800625,21.5147812 8.4795,21.4921406 8.88,21.5675156 C10.32,21.706875 15,21.7499063 15,21.7499063 C15,21.7499063 18.78225,21.7442813 21.301125,21.5607656 C21.6526875,21.5182969 22.4199375,21.5149219 23.1045,20.7926719 C23.6439375,20.2425469 23.82,18.9935156 23.82,18.9935156 C23.82,18.9935156 24,17.5267969 24,16.0595156 L24,14.6840625 C24,13.2174844 23.82,11.7502031 23.82,11.7502031 Z M13.1415,17.7262031 L13.1409375,12.6329063 L18.0043125,15.1883438 L13.1415,17.7262031 Z" id="Youtube"></path>
            </g>
        </g>
    </g>
</svg>