<?xml version="1.0" encoding="UTF-8" standalone="no"?>
<svg width="48px" height="48px" viewBox="0 0 48 48" version="1.1" xmlns="http://www.w3.org/2000/svg" xmlns:xlink="http://www.w3.org/1999/xlink">
    <!-- Generator: Sketch 45.2 (43514) - http://www.bohemiancoding.com/sketch -->
    <title>icon-arrow__right</title>
    <desc>Created with Sketch.</desc>
    <defs></defs>
    <g id="Symbols" stroke="none" stroke-width="1" fill="none" fill-rule="evenodd">
        <g id="icon-arrow__right" fill="#2D2D2D">
            <path d="M13.3150516,24.948759 L19.3629555,31.2115468 C19.7460302,31.6082322 19.7372839,32.2381437 19.3372337,32.6244677 C18.9399533,33.0081169 18.3070417,32.9972291 17.9242759,32.6008636 L10.2809531,24.6859711 C10.0826967,24.4806705 9.98938852,24.2129009 10.000957,23.948759 C9.98938852,23.6846171 10.0826967,23.4168474 10.2809531,23.2115468 L17.9242759,15.2966544 C18.3070417,14.9002888 18.9399533,14.889401 19.3372337,15.2730503 C19.7372839,15.6593742 19.7460302,16.2892857 19.3629555,16.6859711 L13.3150516,22.948759 L38.3254195,22.948759 C38.8757905,22.948759 39.3219543,23.3926238 39.3219543,23.948759 C39.3219543,24.5010437 38.8821412,24.948759 38.3254195,24.948759 L13.3150516,24.948759 Z" transform="translate(24.660977, 23.948759) scale(-1, 1) translate(-24.660977, -23.948759) "></path>
        </g>
    </g>
</svg>