<svg width="48" height="48" viewBox="0 0 48 48" xmlns="http://www.w3.org/2000/svg"><title>icon-locationpin</title><path d="M23.5 16.818c2.628 0 4.75 2.16 4.75 4.818 0 2.658-2.122 4.819-4.75 4.819s-4.75-2.16-4.75-4.819c0-2.657 2.122-4.818 4.75-4.818zm0 2c-1.515 0-2.75 1.257-2.75 2.818 0 1.561 1.235 2.819 2.75 2.819s2.75-1.258 2.75-2.819c0-1.56-1.235-2.818-2.75-2.818zm0-5.818c4.699 0 8.5 3.87 8.5 8.636 0 .793-.108 1.613-.316 2.456-.567 2.3-1.849 4.71-3.627 7.143a38.123 38.123 0 0 1-3.523 4.148c-.16.163-.278.278-.344.34l-.69.66-.69-.66a34.237 34.237 0 0 1-1.219-1.264 38.123 38.123 0 0 1-2.648-3.224c-1.778-2.433-3.06-4.842-3.627-7.143A10.263 10.263 0 0 1 15 21.636C15 16.87 18.8 13 23.5 13zm.434 20.11a36.145 36.145 0 0 0 2.509-3.055c1.637-2.241 2.805-4.435 3.3-6.442A8.28 8.28 0 0 0 30 21.636C30 17.966 27.086 15 23.5 15c-3.587 0-6.5 2.966-6.5 6.636 0 .624.087 1.285.258 1.977.494 2.007 1.662 4.201 3.3 6.442a36.145 36.145 0 0 0 2.942 3.52c.139-.146.284-.301.434-.466z" fill="#2D2D2D" fill-rule="nonzero"/></svg>