<svg width="48" height="48" viewBox="0 0 48 48" xmlns="http://www.w3.org/2000/svg"><title>icon-delete</title><g transform="translate(14 13)" fill="#2D2D2D" fill-rule="evenodd"><path d="M4 20c0 .556.444 1 1 1h9a1 1 0 0 0 1-1V6H4v14zM2 4h15v16a3 3 0 0 1-3 3H5c-1.657 0-3-1.336-3-3V4z" fill-rule="nonzero"/><path d="M11 4V3c0-.549-.452-1-1.01-1h-.98C8.451 2 8 2.45 8 3v1h3zM6 3c0-1.657 1.35-3 3.01-3h.98A3.007 3.007 0 0 1 13 3v3H6V3z" fill-rule="nonzero"/><rect y="4" width="19" height="2" rx="1"/><rect x="6" y="8" width="2" height="11" rx="1"/><rect x="11" y="8" width="2" height="11" rx="1"/></g></svg>