<?xml version="1.0" encoding="UTF-8" standalone="no"?>
<svg width="48px" height="48px" viewBox="0 0 48 48" version="1.1" xmlns="http://www.w3.org/2000/svg" xmlns:xlink="http://www.w3.org/1999/xlink">
    <!-- Generator: Sketch 45.2 (43514) - http://www.bohemiancoding.com/sketch -->
    <title>icon-image</title>
    <desc>Created with Sketch.</desc>
    <defs>
        <polygon id="path-1" points="0 13.104 0 8.8817842e-16 14.211 8.8817842e-16 14.211 13.104"></polygon>
    </defs>
    <g id="Symbols" stroke="none" stroke-width="1" fill="none" fill-rule="evenodd">
        <g id="icon-image">
            <g transform="translate(13.000000, 14.000000)">
                <path d="M2,3.00138694 L2,18.9986131 C2,19.5520419 2.44802881,20 3.00138694,20 L18.9986131,20 C19.5520419,20 20,19.5519712 20,18.9986131 L20,3.00138694 C20,2.44795813 19.5519712,2 18.9986131,2 L3.00138694,2 C2.44795813,2 2,2.44802881 2,3.00138694 Z M0,3.00138694 C0,1.3437667 1.34308127,0 3.00138694,0 L18.9986131,0 C20.6562333,0 22,1.34308127 22,3.00138694 L22,18.9986131 C22,20.6562333 20.6569187,22 18.9986131,22 L3.00138694,22 C1.3437667,22 0,20.6569187 0,18.9986131 L0,3.00138694 Z" id="Rectangle-13" fill="#2D2D2D" fill-rule="nonzero"></path>
                <g id="Page-1" transform="translate(4.000000, 5.000000)">
                    <mask id="mask-2" fill="white">
                        <use xlink:href="#path-1"></use>
                    </mask>
                    <g id="Clip-2"></g>
                    <path d="M7.1056,8.8817842e-16 C6.6976,8.8817842e-16 6.2896,0.277 5.9806,0.833 L2.91268124,6.32984412 L0.2576,11.087 C-0.3604,12.197 0.1716,13.104 1.4426,13.104 L12.7686,13.104 C14.0396,13.104 14.5726,12.197 13.9536,11.087 L8.2306,0.833 C7.9216,0.277 7.5136,8.8817842e-16 7.1056,8.8817842e-16 M11.7866,11.171 L2.4246,11.171 L7.1056,2.782 L11.7866,11.171 Z" id="Fill-1" fill="#2D2D2D" mask="url(#mask-2)"></path>
                </g>
                <path d="M6,8 C4.8954305,8 4,7.1045695 4,6 C4,4.8954305 4.8954305,4 6,4 C7.1045695,4 8,4.8954305 8,6 C8,7.1045695 7.1045695,8 6,8 Z" id="Oval-3" fill="#2D2D2D" fill-rule="nonzero"></path>
            </g>
        </g>
    </g>
</svg>