<svg width="48" height="48" viewBox="0 0 48 48" xmlns="http://www.w3.org/2000/svg" xmlns:xlink="http://www.w3.org/1999/xlink"><title>icon-image</title><defs><path id="a" d="M0 13.104V0h14.211v13.104z"/></defs><g fill="none" fill-rule="evenodd"><path d="M15 17.001V33A1 1 0 0 0 16.001 34H32A1 1 0 0 0 33 32.999V17A1 1 0 0 0 31.999 16H16A1 1 0 0 0 15 17.001zm-2 0A3 3 0 0 1 16.001 14H32A3 3 0 0 1 35 17.001V33A3 3 0 0 1 31.999 36H16A3 3 0 0 1 13 32.999V17z" fill="#2D2D2D" fill-rule="nonzero"/><g transform="translate(17 19)"><mask id="b" fill="#fff"><use xlink:href="#a"/></mask><path d="M7.106 0C6.698 0 6.29.277 5.98.833L2.913 6.33.258 11.087c-.618 1.11-.086 2.017 1.185 2.017h11.326c1.27 0 1.804-.907 1.185-2.017L8.23.833C7.92.277 7.514 0 7.106 0m4.68 11.171H2.426l4.68-8.389 4.682 8.389z" fill="#2D2D2D" mask="url(#b)"/></g><path d="M19 22a2 2 0 1 1 0-4 2 2 0 0 1 0 4z" fill="#2D2D2D" fill-rule="nonzero"/></g></svg>