<svg width="48" height="48" viewBox="0 0 48 48" xmlns="http://www.w3.org/2000/svg"><title>icon-barcode</title><path d="M17 31h3.01c.546 0 .99.444.99 1a1 1 0 0 1-.99 1h-4.02a.984.984 0 0 1-.697-.288 1.005 1.005 0 0 1-.293-.703v-4.018c0-.547.444-.991 1-.991a1 1 0 0 1 1 .99V31zm14 0v-3.01a1 1 0 0 1 1-.99c.556 0 1 .444 1 .99v4.02c0 .268-.11.514-.293.702a.984.984 0 0 1-.698.288h-4.018A1 1 0 0 1 27 32c0-.556.444-1 .99-1H31zM17 17v3.01a1 1 0 0 1-1 .99c-.556 0-1-.444-1-.99v-4.02c0-.268.11-.514.293-.702a.984.984 0 0 1 .698-.288h4.018A1 1 0 0 1 21 16c0 .556-.444 1-.99 1H17zm14 0h-3.01a.993.993 0 0 1-.99-1 1 1 0 0 1 .99-1h4.02c.271 0 .518.11.697.288.182.188.293.434.293.703v4.018c0 .547-.444.991-1 .991a1 1 0 0 1-1-.99V17z" fill="#2D2D2D" fill-rule="evenodd"/></svg>