<?xml version="1.0" encoding="UTF-8" standalone="no"?>
<svg width="48px" height="48px" viewBox="0 0 48 48" version="1.1" xmlns="http://www.w3.org/2000/svg" xmlns:xlink="http://www.w3.org/1999/xlink">
    <!-- Generator: Sketch 45.2 (43514) - http://www.bohemiancoding.com/sketch -->
    <title>icon-barcode</title>
    <desc>Created with Sketch.</desc>
    <defs></defs>
    <g id="Symbols" stroke="none" stroke-width="1" fill="none" fill-rule="evenodd">
        <g id="icon-barcode" fill="#2D2D2D">
            <path d="M17,31 L20.009222,31 C20.5564136,31 21,31.4438648 21,32 C21,32.5522847 20.5490248,33 20.009222,33 L15.990778,33 C15.7186945,33 15.4722267,32.8902571 15.2931716,32.7115371 C15.1106894,32.5240668 15,32.2776249 15,32.009222 L15,27.990778 C15,27.4435864 15.4438648,27 16,27 C16.5522847,27 17,27.4509752 17,27.990778 L17,31 Z M31,31 L31,27.990778 C31,27.4509752 31.4477153,27 32,27 C32.5561352,27 33,27.4435864 33,27.990778 L33,32.009222 C33,32.2776249 32.8893106,32.5240668 32.7068284,32.7115371 C32.5277733,32.8902571 32.2813055,33 32.009222,33 L27.990778,33 C27.4509752,33 27,32.5522847 27,32 C27,31.4438648 27.4435864,31 27.990778,31 L31,31 Z M17,17 L17,20.009222 C17,20.5490248 16.5522847,21 16,21 C15.4438648,21 15,20.5564136 15,20.009222 L15,15.990778 C15,15.7223751 15.1106894,15.4759332 15.2931716,15.2884629 C15.4722267,15.1097429 15.7186945,15 15.990778,15 L20.009222,15 C20.5490248,15 21,15.4477153 21,16 C21,16.5561352 20.5564136,17 20.009222,17 L17,17 Z M31,17 L27.990778,17 C27.4435864,17 27,16.5561352 27,16 C27,15.4477153 27.4509752,15 27.990778,15 L32.009222,15 C32.2813055,15 32.5277733,15.1097429 32.7068284,15.2884629 C32.8893106,15.4759332 33,15.7223751 33,15.990778 L33,20.009222 C33,20.5564136 32.5561352,21 32,21 C31.4477153,21 31,20.5490248 31,20.009222 L31,17 Z"></path>
        </g>
    </g>
</svg>