<?xml version="1.0" encoding="UTF-8" standalone="no"?>
<svg width="48px" height="48px" viewBox="0 0 48 48" version="1.1" xmlns="http://www.w3.org/2000/svg" xmlns:xlink="http://www.w3.org/1999/xlink">
    <!-- Generator: Sketch 45.2 (43514) - http://www.bohemiancoding.com/sketch -->
    <title>icon-home</title>
    <desc>Created with Sketch.</desc>
    <defs></defs>
    <g id="Symbols" stroke="none" stroke-width="1" fill="none" fill-rule="evenodd">
        <g id="icon-home" fill-rule="nonzero" fill="#2D2D2D">
            <g transform="translate(11.000000, 12.000000)">
                <path d="M23.6066017,12.7071068 C23.997126,13.0976311 24.630291,13.0976311 25.0208153,12.7071068 C25.4113396,12.3165825 25.4113396,11.6834175 25.0208153,11.2928932 L14.2720475,0.544125408 C13.5654125,-0.162509571 12.4312285,-0.159150593 11.7279525,0.544125408 L0.97918472,11.2928932 C0.588660428,11.6834175 0.588660428,12.3165825 0.97918472,12.7071068 C1.36970901,13.0976311 2.00287399,13.0976311 2.39339828,12.7071068 L13,2.10050506 L23.6066017,12.7071068 Z" id="Rectangle-20"></path>
                <path d="M6,22 L20,22 L20,8 L6,8 L6,22 Z M4,9.99742191 C4,8.89427625 4.8926228,8 5.99508929,8 L20.0049107,8 C21.1067681,8 22,8.89092539 22,9.99742191 L22,22.0025781 C22,23.1057238 21.1073772,24 20.0049107,24 L5.99508929,24 C4.8932319,24 4,23.1090746 4,22.0025781 L4,9.99742191 Z" id="Rectangle-9"></path>
                <path d="M12,22 L14,22 L14,17 L12,17 L12,22 Z M10,15 L16,15 L16,24 L10,24 L10,15 Z" id="Rectangle-21"></path>
            </g>
        </g>
    </g>
</svg>