<svg width="48" height="48" viewBox="0 0 48 48" xmlns="http://www.w3.org/2000/svg"><title>icon-home</title><g fill-rule="nonzero" fill="#2D2D2D"><path d="M34.607 24.707a1 1 0 0 0 1.414-1.414L25.272 12.544a1.795 1.795 0 0 0-2.544 0L11.979 23.293a1 1 0 0 0 1.414 1.414L24 14.101l10.607 10.606z"/><path d="M17 34h14V20H17v14zm-2-12.003c0-1.103.893-1.997 1.995-1.997h14.01c1.102 0 1.995.89 1.995 1.997v12.006A1.996 1.996 0 0 1 31.005 36h-14.01A1.994 1.994 0 0 1 15 34.003V21.997z"/><path d="M23 34h2v-5h-2v5zm-2-7h6v9h-6v-9z"/></g></svg>