<?xml version="1.0" encoding="UTF-8" standalone="no"?>
<svg width="48px" height="48px" viewBox="0 0 48 48" version="1.1" xmlns="http://www.w3.org/2000/svg" xmlns:xlink="http://www.w3.org/1999/xlink">
    <!-- Generator: Sketch 45.2 (43514) - http://www.bohemiancoding.com/sketch -->
    <title>icon-id</title>
    <desc>Created with Sketch.</desc>
    <defs></defs>
    <g id="Symbols" stroke="none" stroke-width="1" fill="none" fill-rule="evenodd">
        <g id="icon-id" fill="#2D2D2D">
            <g transform="translate(9.000000, 14.000000)" id="icon--id">
                <g>
                    <path d="M2,2 L2,18 L28,18 L28,2 L2,2 Z M2,0 L28,0 C29.1045695,0 30,0.8954305 30,2 L30,18 C30,19.1045695 29.1045695,20 28,20 L2,20 C0.8954305,20 0,19.1045695 0,18 L0,2 C0,0.8954305 0.8954305,0 2,0 Z" id="shape" fill-rule="nonzero"></path>
                    <path d="M6,7 L6,11 L10,11 L10,7 L6,7 Z M6,5 L10,5 C11.1045695,5 12,5.8954305 12,7 L12,11 C12,12.1045695 11.1045695,13 10,13 L6,13 C4.8954305,13 4,12.1045695 4,11 L4,7 C4,5.8954305 4.8954305,5 6,5 Z" id="photo" fill-rule="nonzero"></path>
                    <path d="M15,6 C15,5.44771525 15.444837,5 15.9955775,5 L25.0044225,5 C25.5542648,5 26,5.44386482 26,6 C26,6.55228475 25.555163,7 25.0044225,7 L15.9955775,7 C15.4457352,7 15,6.55613518 15,6 Z M15,10 C15,9.44771525 15.4378814,9 16.0029293,9 L20.9970707,9 C21.5509732,9 22,9.44386482 22,10 C22,10.5522847 21.5621186,11 20.9970707,11 L16.0029293,11 C15.4490268,11 15,10.5561352 15,10 Z M15,14 C15,13.4477153 15.4463114,13 15.9975446,13 L23.0024554,13 C23.553384,13 24,13.4438648 24,14 C24,14.5522847 23.5536886,15 23.0024554,15 L15.9975446,15 C15.446616,15 15,14.5561352 15,14 Z" id="stripes"></path>
                </g>
            </g>
        </g>
    </g>
</svg>