<svg width="48" height="48" viewBox="0 0 48 48" xmlns="http://www.w3.org/2000/svg"><title>icon-id</title><g fill="#2D2D2D" fill-rule="evenodd"><path d="M11 16v16h26V16H11zm0-2h26a2 2 0 0 1 2 2v16a2 2 0 0 1-2 2H11a2 2 0 0 1-2-2V16a2 2 0 0 1 2-2z" fill-rule="nonzero"/><path d="M15 21v4h4v-4h-4zm0-2h4a2 2 0 0 1 2 2v4a2 2 0 0 1-2 2h-4a2 2 0 0 1-2-2v-4a2 2 0 0 1 2-2z" fill-rule="nonzero"/><path d="M24 20c0-.552.445-1 .996-1h9.008c.55 0 .996.444.996 1 0 .552-.445 1-.996 1h-9.008A.995.995 0 0 1 24 20zm0 4c0-.552.438-1 1.003-1h4.994A.999.999 0 0 1 31 24c0 .552-.438 1-1.003 1h-4.994A.999.999 0 0 1 24 24zm0 4c0-.552.446-1 .998-1h7.004c.551 0 .998.444.998 1 0 .552-.446 1-.998 1h-7.004A.996.996 0 0 1 24 28z"/></g></svg>