<svg width="48" height="48" viewBox="0 0 48 48" xmlns="http://www.w3.org/2000/svg"><title>icon-user</title><g fill-rule="nonzero" fill="#2D2D2D"><path d="M25 14.5a9.5 9.5 0 1 0 0 19 9.5 9.5 0 0 0 0-19zm0-2c6.351 0 11.5 5.148 11.5 11.5 0 6.35-5.149 11.5-11.5 11.5-6.352 0-11.5-5.15-11.5-11.5 0-6.352 5.148-11.5 11.5-11.5z"/><path d="M25 33.455c1.923 0 3.755-.58 5.304-1.638-.553-.454-1.097-.825-1.583-1.055-1.49-.705-2.406-1.53-2.786-2.621-.31-.89-.208-1.848.264-2.805.164-.333.289-.564.549-1.029.2-.355.222-.397.292-.53.443-.846.603-1.614.603-3.453 0-1.88-.511-2.637-1.037-2.637-.065 0-.067 0-.247.065-.613.217-1.066.313-1.861.326a6.91 6.91 0 0 0-.538.022c-.808.073-1.096.413-1.096 2.093 0 1.767.267 2.754.876 3.888.053.099.08.149.201.366.112.202.151.275.208.38.109.206.198.385.278.568.963 2.186.098 4.174-2.193 5.187-1.17.517-1.769.82-2.429 1.31A9.384 9.384 0 0 0 25 33.456zm0 2c-2.772 0-5.393-.996-7.46-2.773l-.874-.751.868-.76c1.368-1.196 2.037-1.6 3.892-2.419 1.313-.58 1.674-1.41 1.171-2.55a6.54 6.54 0 0 0-.214-.435c-.05-.094-.087-.162-.192-.352a28.433 28.433 0 0 1-.212-.387c-.76-1.415-1.115-2.724-1.115-4.834 0-2.686 1.045-3.916 2.916-4.086.203-.018.357-.024.683-.03.557-.009.804-.061 1.225-.21.375-.134.573-.181.918-.181 1.834 0 3.037 1.78 3.037 4.637 0 2.142-.226 3.224-.831 4.381-.083.158-.107.202-.32.58-.243.435-.355.642-.499.934-.248.503-.291.914-.17 1.264.174.498.702.973 1.753 1.47.982.465 1.997 1.256 2.981 2.189l.797.756-.827.723A11.4 11.4 0 0 1 25 35.455z"/></g></svg>