<svg width="48" height="48" viewBox="0 0 48 48" xmlns="http://www.w3.org/2000/svg"><title>icon-printer</title><g transform="translate(13 14)" fill="#2D2D2D" fill-rule="evenodd"><path d="M18.06 18h1.938A1.01 1.01 0 0 0 21 16.99V7.01C21 6.445 20.554 6 19.993 6H3.007C2.446 6 2 6.447 2 7.01v9.98c0 .566.443 1.01.995 1.01H5v2H2.995A2.995 2.995 0 0 1 0 16.99V7.01A3.002 3.002 0 0 1 3.007 4h16.986A3.001 3.001 0 0 1 23 7.01v9.98A3.01 3.01 0 0 1 19.998 20H18.06v-2zm0 0h1.938A1.01 1.01 0 0 0 21 16.99V7.01C21 6.445 20.554 6 19.993 6H3.007C2.446 6 2 6.447 2 7.01v9.98c0 .566.443 1.01.995 1.01H5v2H2.995A2.995 2.995 0 0 1 0 16.99V7.01A3.002 3.002 0 0 1 3.007 4h16.986A3.001 3.001 0 0 1 23 7.01v9.98A3.01 3.01 0 0 1 19.998 20H18.06v-2z" fill-rule="nonzero"/><path d="M6 4h11V2H6v2zM4 1.998C4 .894 4.893 0 5.992 0h11.016C18.108 0 19 .898 19 1.998V6H4V1.998zM6 21.008v-.004.004zM17 21v-7H6v7h11zM4 12h15v9.008c0 1.1-.893 1.992-1.992 1.992H5.992C4.892 23 4 22.1 4 21.008V12z" fill-rule="nonzero"/><rect x="8" y="18" width="7" height="2" rx="1"/><rect x="8" y="15" width="4" height="2" rx="1"/><circle cx="18" cy="9" r="1"/><circle cx="15" cy="9" r="1"/></g></svg>