<svg width="48" height="48" viewBox="0 0 48 48" xmlns="http://www.w3.org/2000/svg"><title>icon-scissors</title><g transform="translate(13.666 12)" fill="#2D2D2D" fill-rule="evenodd"><path d="M3.834 21a1.5 1.5 0 1 0 0-3 1.5 1.5 0 0 0 0 3zm0 2a3.5 3.5 0 1 1 0-7 3.5 3.5 0 0 1 0 7zM15.834 21a1.5 1.5 0 1 0 0-3 1.5 1.5 0 0 0 0 3zm0 2a3.5 3.5 0 1 1 0-7 3.5 3.5 0 0 1 0 7z" fill-rule="nonzero"/><rect transform="rotate(-60 10.2 9.16)" x=".2" y="8.16" width="20" height="2" rx="1"/><rect transform="scale(-1 1) rotate(-60 0 25.095)" x="-.8" y="8.16" width="20" height="2" rx="1"/></g></svg>