<?xml version="1.0" encoding="UTF-8" standalone="no"?>
<svg width="48px" height="48px" viewBox="0 0 48 48" version="1.1" xmlns="http://www.w3.org/2000/svg" xmlns:xlink="http://www.w3.org/1999/xlink">
    <!-- Generator: Sketch 45.2 (43514) - http://www.bohemiancoding.com/sketch -->
    <title>icon-checkcircle</title>
    <desc>Created with Sketch.</desc>
    <defs></defs>
    <g id="Symbols" stroke="none" stroke-width="1" fill="none" fill-rule="evenodd">
        <g id="icon-checkcircle" fill="#2D2D2D">
            <g transform="translate(13.000000, 12.000000)">
                <path d="M11.0673439,15.0612374 C11.30261,15.0388378 11.5308353,14.9330163 11.7050055,14.7462417 L21.2517936,4.50856485 C21.6311489,4.10175608 21.6069482,3.47123259 21.2030327,3.09457529 C20.7963012,2.71529202 20.1660718,2.74030055 19.7890862,3.14456813 L10.8791273,12.6993292 L7.18291295,9.25255352 C6.78506104,8.88155062 6.1483902,8.9000188 5.7717329,9.3039343 C5.39244962,9.71066582 5.4162003,10.3397222 5.81891623,10.7152609 L10.2113825,14.811302 C10.4473774,15.0313708 10.7674016,15.1144026 11.0673439,15.0612374 L11.0673439,15.0612374 Z" id="Combined-Shape-Copy"></path>
                <path d="M11.5,23 C5.159,23 0,17.841 0,11.5 C0,5.159 5.159,0 11.5,0 C13.714,0 15.864,0.631 17.717,1.824 C18.222,2.149 18.368,2.821 18.043,3.326 C17.718,3.83 17.045,3.976 16.541,3.651 C15.039,2.685 13.296,2.173 11.5,2.173 C6.357,2.173 2.173,6.357 2.173,11.5 C2.173,16.643 6.357,20.827 11.5,20.827 C16.643,20.827 20.827,16.643 20.827,11.5 C20.827,10.454 20.655,9.428 20.317,8.451 C20.121,7.883 20.421,7.264 20.988,7.068 C21.556,6.87 22.175,7.173 22.371,7.74 C22.788,8.946 23,10.211 23,11.5 C23,17.841 17.841,23 11.5,23" id="Page-1"></path>
            </g>
        </g>
    </g>
</svg>