<svg width="48" height="48" viewBox="0 0 48 48" xmlns="http://www.w3.org/2000/svg"><title>icon-checkcircle</title><g fill="#2D2D2D" fill-rule="evenodd"><path d="M24.067 27.061a.999.999 0 0 0 .638-.315l9.547-10.237a.998.998 0 0 0-.049-1.414.998.998 0 0 0-1.414.05l-8.91 9.554-3.696-3.446a1.003 1.003 0 0 0-1.411.05.996.996 0 0 0 .047 1.412l4.392 4.096c.236.22.556.303.856.25z"/><path d="M24.5 35C18.159 35 13 29.841 13 23.5S18.159 12 24.5 12c2.214 0 4.364.631 6.217 1.824a1.086 1.086 0 1 1-1.176 1.827 9.3 9.3 0 0 0-5.041-1.478c-5.143 0-9.327 4.184-9.327 9.327s4.184 9.327 9.327 9.327 9.327-4.184 9.327-9.327a9.305 9.305 0 0 0-.51-3.049 1.087 1.087 0 1 1 2.054-.711c.417 1.206.629 2.471.629 3.76C36 29.841 30.841 35 24.5 35"/></g></svg>