<?xml version="1.0" encoding="UTF-8" standalone="no"?>
<svg width="48px" height="48px" viewBox="0 0 48 48" version="1.1" xmlns="http://www.w3.org/2000/svg" xmlns:xlink="http://www.w3.org/1999/xlink">
    <!-- Generator: Sketch 45.2 (43514) - http://www.bohemiancoding.com/sketch -->
    <title>icon-twitter</title>
    <desc>Created with Sketch.</desc>
    <defs></defs>
    <g id="Symbols" stroke="none" stroke-width="1" fill="none" fill-rule="evenodd">
        <g id="icon-twitter" fill="#2D2D2D">
            <g transform="translate(9.000000, 9.000000)">
                <path d="M15,28 C22.18,28 28,22.18 28,15 C28,7.82 22.18,2 15,2 C7.82,2 2,7.82 2,15 C2,22.18 7.82,28 15,28 M15,30 C6.716,30 0,23.284 0,15 C0,6.716 6.716,0 15,0 C23.284,0 30,6.716 30,15 C30,23.284 23.284,30 15,30" id="Page-1"></path>
                <path d="M22.58525,9.2175 C21.9905,9.57 21.332,9.8175 20.6315,9.96 C20.0705,9.3675 19.27025,9 18.38525,9 C16.68575,9 15.308,10.3575 15.308,12.03 C15.308,12.2625 15.33425,12.495 15.38675,12.72 C12.82925,12.5925 10.562,11.385 9.044,9.555 C8.77925,10.005 8.62775,10.5225 8.62775,11.0775 C8.62775,12.1275 9.17,13.0575 9.9965,13.5975 C9.4925,13.5825 9.01775,13.4475 8.603,13.215 C8.60225,13.23 8.60225,13.245 8.60225,13.26 C8.60225,14.7225 9.6635,15.945 11.07125,16.23 C10.8125,16.2975 10.54175,16.335 10.2605,16.335 C10.0625,16.335 9.869,16.3125 9.6815,16.275 C10.073,17.4825 11.20925,18.36 12.5555,18.3825 C11.5025,19.1925 10.17575,19.68 8.7335,19.68 C8.48525,19.68 8.24075,19.665 8,19.635 C9.362,20.4975 10.97975,21 12.7175,21 C18.3785,21 21.47375,16.38 21.47375,12.3825 C21.47375,12.2475 21.47075,12.12 21.46475,11.985 C22.0655,11.5575 22.58675,11.025 23,10.4175 C22.448,10.6575 21.8555,10.8225 21.23225,10.8975 C21.8675,10.5225 22.355,9.93 22.58525,9.2175 L22.58525,9.2175 Z" id="Path"></path>
            </g>
        </g>
    </g>
</svg>