<svg width="48" height="48" viewBox="0 0 48 48" xmlns="http://www.w3.org/2000/svg"><title>icon-twitter</title><g fill="#2D2D2D" fill-rule="evenodd"><path d="M24 37c7.18 0 13-5.82 13-13s-5.82-13-13-13-13 5.82-13 13 5.82 13 13 13m0 2c-8.284 0-15-6.716-15-15 0-8.284 6.716-15 15-15 8.284 0 15 6.716 15 15 0 8.284-6.716 15-15 15"/><path d="M31.585 18.218a6.27 6.27 0 0 1-1.954.742 3.084 3.084 0 0 0-2.246-.96c-1.7 0-3.077 1.357-3.077 3.03 0 .232.026.465.079.69a8.797 8.797 0 0 1-6.343-3.165c-.265.45-.416.968-.416 1.523 0 1.05.542 1.98 1.368 2.52a3.026 3.026 0 0 1-1.393-.383v.045c0 1.462 1.06 2.685 2.468 2.97-.259.067-.53.105-.81.105a2.95 2.95 0 0 1-.58-.06 3.07 3.07 0 0 0 2.874 2.107A6.252 6.252 0 0 1 17 28.635 8.79 8.79 0 0 0 21.717 30c5.662 0 8.757-4.62 8.757-8.618 0-.135-.003-.262-.01-.397.602-.428 1.123-.96 1.536-1.568a6.32 6.32 0 0 1-1.768.48 3.041 3.041 0 0 0 1.353-1.68z"/></g></svg>