<?xml version="1.0" encoding="UTF-8" standalone="no"?>
<svg width="48px" height="48px" viewBox="0 0 48 48" version="1.1" xmlns="http://www.w3.org/2000/svg" xmlns:xlink="http://www.w3.org/1999/xlink">
    <!-- Generator: Sketch 45.2 (43514) - http://www.bohemiancoding.com/sketch -->
    <title>icon-truck</title>
    <desc>Created with Sketch.</desc>
    <defs>
        <polygon id="path-1" points="2.84217094e-14 20 28.9682366 20 28.9682366 0 2.84217094e-14 0"></polygon>
    </defs>
    <g id="Symbols" stroke="none" stroke-width="1" fill="none" fill-rule="evenodd">
        <g id="icon-truck">
            <g transform="translate(9.924425, 15.000000)">
                <path d="M7.07557503,18 C8.17857503,18 9.07557503,17.103 9.07557503,16 C9.07557503,14.897 8.17857503,14 7.07557503,14 C5.97257503,14 5.07557503,14.897 5.07557503,16 C5.07557503,17.103 5.97257503,18 7.07557503,18 Z M7.07557503,12 C9.28457503,12 11.075575,13.791 11.075575,16 C11.075575,18.209 9.28457503,20 7.07557503,20 C4.86657503,20 3.07557503,18.209 3.07557503,16 C3.07557503,13.791 4.86657503,12 7.07557503,12 Z" id="Fill-1" fill="#2D2D2D"></path>
                <mask id="mask-2" fill="white">
                    <use xlink:href="#path-1"></use>
                </mask>
                <g id="Clip-4"></g>
                <polygon id="Fill-3" fill="#2D2D2D" mask="url(#mask-2)" points="9.9890471 17 18.0741818 17 18.0741818 15 9.9890471 15"></polygon>
                <path d="M2.07557503,15 L2.07557503,3 C2.07557503,2.449 2.52457503,2 3.07657503,2 L19.074575,2 C19.635575,2 20.075575,2.439 20.075575,3 L20.075575,13.125 L22.075575,13.125 L22.075575,3 C22.075575,1.334 20.731575,0 19.074575,0 L3.07657503,0 C1.41857503,0 0.0755750274,1.343 0.0755750274,3 L0.0755750274,17 L4.07557503,17 L4.07557503,15 L2.07557503,15 Z" id="Fill-5" fill="#2D2D2D" mask="url(#mask-2)"></path>
                <path d="M22.075575,6 L26.078575,6 C26.628575,6 27.075575,6.448 27.075575,6.999 L27.075575,15 L22.894575,15 L24.885575,17 L29.075575,17 L29.075575,6.999 C29.075575,5.342 27.733575,4 26.078575,4 L20.075575,4 L20.075575,12.168 L22.075575,14.177 L22.075575,6 Z" id="Fill-6" fill="#2D2D2D" mask="url(#mask-2)"></path>
                <path d="M21.075575,18 C19.972575,18 19.075575,17.103 19.075575,16 C19.075575,14.897 19.972575,14 21.075575,14 C22.178575,14 23.075575,14.897 23.075575,16 C23.075575,17.103 22.178575,18 21.075575,18 M21.075575,12 C18.866575,12 17.075575,13.791 17.075575,16 C17.075575,18.209 18.866575,20 21.075575,20 C23.284575,20 25.075575,18.209 25.075575,16 C25.075575,13.791 23.284575,12 21.075575,12" id="Fill-7" fill="#2D2D2D" mask="url(#mask-2)"></path>
                <path d="M24.075575,8.0093 C24.075575,7.4523 24.5190887,7.0003 25.0744797,7.0003 C25.6258751,7.0003 26.0733844,7.4433 26.0733844,8.0093 L26.0733844,9.9903 C26.0733844,10.5483 25.6298708,11.0003 25.0744797,11.0003 C24.5230843,11.0003 24.075575,10.5563 24.075575,9.9903 L24.075575,8.0093 Z" id="Fill-8" fill="#2D2D2D" mask="url(#mask-2)"></path>
            </g>
        </g>
    </g>
</svg>