<svg width="48" height="48" viewBox="0 0 48 48" xmlns="http://www.w3.org/2000/svg" xmlns:xlink="http://www.w3.org/1999/xlink"><title>icon-truck</title><defs><path id="a" d="M0 20h28.968V0H0z"/></defs><g transform="translate(9.924 15)" fill="none" fill-rule="evenodd"><path d="M7.076 18c1.103 0 2-.897 2-2s-.897-2-2-2-2 .897-2 2 .897 2 2 2zm0-6a4 4 0 1 1 0 8 4 4 0 0 1 0-8z" fill="#2D2D2D"/><mask id="b" fill="#fff"><use xlink:href="#a"/></mask><path fill="#2D2D2D" mask="url(#b)" d="M9.989 17h8.085v-2H9.99z"/><path d="M2.076 15V3c0-.551.449-1 1-1h15.999a.99.99 0 0 1 1 1v10.125h2V3c0-1.666-1.343-3-3-3H3.077A3 3 0 0 0 .076 3v14h4v-2h-2z" fill="#2D2D2D" mask="url(#b)"/><path d="M22.076 6h4.003c.55 0 .997.448.997.999V15h-4.181l1.99 2h4.19V6.999A2.998 2.998 0 0 0 26.08 4h-6.003v8.168l2 2.009V6z" fill="#2D2D2D" mask="url(#b)"/><path d="M21.076 18c-1.103 0-2-.897-2-2s.897-2 2-2 2 .897 2 2-.897 2-2 2m0-6a4 4 0 1 0 0 8 4 4 0 0 0 0-8M24.076 8.01a.999.999 0 0 1 1.998 0v1.98a1 1 0 1 1-1.998 0V8.01z" fill="#2D2D2D" mask="url(#b)"/></g></svg>