<svg width="48" height="48" viewBox="0 0 48 48" xmlns="http://www.w3.org/2000/svg"><title>icon-whatsapp</title><g fill-rule="nonzero" fill="#2D2D2D"><path d="M9.65 22.8c0-6.174 5.99-11.15 13.35-11.15 7.36 0 13.35 4.976 13.35 11.15S30.36 33.95 23 33.95c-1.22 0-2.431-.144-3.62-.422l-7.51 3.05 1.421-6.132c-2.32-2.053-3.641-4.76-3.641-7.646zm9.13 8.924a1.488 1.488 0 0 1 .93-.07c1.085.263 2.192.396 3.29.396 6.337 0 11.468-4.168 11.468-9.25S29.338 13.55 23 13.55c-6.337 0-11.468 4.168-11.468 9.25 0 2.354 1.11 4.603 3.136 6.336.44.376.635.97.503 1.538l-.643 2.777 4.252-1.727z"/><path d="M22.25 20.5c0 .138-.038.27-.11.388l-.074.091-.282.28-.292.29a.5.5 0 0 0-.16.365c0 .128.05.252.196.42.588.813 1.307 1.527 2.21 2.187.093.09.218.14.346.14a.533.533 0 0 0 .377-.17l.556-.56.09-.072a.739.739 0 0 1 .922.109l2.112 1.641a.735.735 0 0 1 .357.637l.001.079c-.06 1.067-1.292 2.175-2.623 2.175-.388 0-.766-.086-1.117-.252l-.1-.039a15.835 15.835 0 0 1-6.867-6.864l-.038-.098a2.607 2.607 0 0 1-.254-1.122c0-1.363 1.168-2.625 2.25-2.625a.734.734 0 0 1 .634.352l1.647 2.118c.13.13.22.309.22.53z"/></g></svg>