<?xml version="1.0" encoding="UTF-8" standalone="no"?>
<svg width="48px" height="48px" viewBox="0 0 48 48" version="1.1" xmlns="http://www.w3.org/2000/svg" xmlns:xlink="http://www.w3.org/1999/xlink">
    <!-- Generator: Sketch 45.2 (43514) - http://www.bohemiancoding.com/sketch -->
    <title>icon-whatsapp</title>
    <desc>Created with Sketch.</desc>
    <defs></defs>
    <g id="Symbols" stroke="none" stroke-width="1" fill="none" fill-rule="evenodd">
        <g id="icon-whatsapp" fill-rule="nonzero" fill="#2D2D2D">
            <g transform="translate(9.000000, 11.000000)">
                <path d="M0.65,11.8 C0.65,5.62611742 6.6396038,0.65 14,0.65 C21.3600075,0.65 27.35,5.62628409 27.35,11.8 C27.35,17.9737159 21.3600075,22.95 14,22.95 C12.7790971,22.95 11.5685295,22.8058997 10.3808755,22.5278063 L2.87044297,25.5780684 L4.29114115,19.4457519 C1.97159139,17.3928485 0.65,14.6853951 0.65,11.8 Z M9.77965379,20.7242004 C9.96028653,20.6488151 10.1553225,20.6108 10.3529091,20.6108 C10.4714495,20.6108 10.5914744,20.6252992 10.7101261,20.6536486 C11.7951847,20.9166399 12.9020645,21.05 14,21.05 C20.3370514,21.05 25.4681818,16.8816915 25.4681818,11.8 C25.4681818,6.71753067 20.3375662,2.55 14,2.55 C7.66281881,2.55 2.53181818,6.71769953 2.53181818,11.8 C2.53181818,14.1535241 3.6422508,16.4032765 5.66762571,18.1359484 C6.10879114,18.5117006 6.30338109,19.1068269 6.1710666,19.6735657 L5.52785609,22.4509647 L9.77965379,20.7242004 Z" id="Fill-29-Copy"></path>
                <path d="M13.2504688,9.5 C13.2504688,9.63807475 13.2117438,9.770801 13.1392737,9.8877955 L13.066401,9.97941476 C12.9957981,10.049475 12.9957981,10.049475 12.783989,10.2596587 C12.5729965,10.4690355 12.5729965,10.4690355 12.4919408,10.5492272 C12.3896371,10.6454415 12.332354,10.7769638 12.332354,10.914 C12.332354,11.0421166 12.3820728,11.1661824 12.5278126,11.333143 C13.1164899,12.1469559 13.8347587,12.8608548 14.7380556,13.5214274 C14.831397,13.6109685 14.956035,13.6615 15.0842605,13.6615 C15.2132636,13.6615 15.339166,13.6095767 15.4609004,13.4917869 C15.4518712,13.4998522 16.0171342,12.9306849 16.0171342,12.9306849 L16.1071887,12.8588343 C16.2247131,12.7854843 16.3581388,12.746 16.4971871,12.746 C16.7183457,12.746 16.8948406,12.8347477 17.0293078,12.9675299 C17.0298781,12.9681241 19.1406625,14.6093478 19.1406625,14.6093478 C19.1946854,14.6432532 19.2191984,14.6622807 19.2777718,14.7156745 C19.4075117,14.8453981 19.4974997,15.023654 19.4974997,15.246 C19.4975428,15.247481 19.4975428,15.247481 19.4991996,15.3245306 C19.4387171,16.3921452 18.2069456,17.5 16.8759845,17.5 C16.488433,17.5 16.1103908,17.4140779 15.7588309,17.2477435 L15.6584133,17.2094002 C12.7223917,15.7117438 10.2907737,13.2809023 8.79220008,10.3453357 L8.75448543,10.2471056 C8.58583904,9.89062405 8.5,9.51262091 8.5,9.125 C8.5,7.7618493 9.66821344,6.5 10.7502188,6.5 C10.9727674,6.5 11.1525675,6.59055466 11.2805222,6.71967451 C11.3387476,6.78411433 11.3516529,6.80096084 11.3837245,6.85197964 C11.3850346,6.85397249 13.0312927,8.97022219 13.0312927,8.97022219 C13.16089,9.09961905 13.2504688,9.27866345 13.2504688,9.5 Z" id="icon--phone"></path>
            </g>
        </g>
    </g>
</svg>