<?xml version="1.0" encoding="UTF-8" standalone="no"?>
<svg width="48px" height="48px" viewBox="0 0 48 48" version="1.1" xmlns="http://www.w3.org/2000/svg" xmlns:xlink="http://www.w3.org/1999/xlink">
    <!-- Generator: Sketch 45.2 (43514) - http://www.bohemiancoding.com/sketch -->
    <title>icon-message</title>
    <desc>Created with Sketch.</desc>
    <defs></defs>
    <g id="Symbols" stroke="none" stroke-width="1" fill="none" fill-rule="evenodd">
        <g id="icon-message" fill="#2D2D2D" fill-rule="nonzero">
            <path d="M10.65,23.8 C10.65,17.6261174 16.6396038,12.65 24,12.65 C31.3600075,12.65 37.35,17.6262841 37.35,23.8 C37.35,29.9737159 31.3600075,34.95 24,34.95 C22.7790971,34.95 21.5685295,34.8058997 20.3808755,34.5278063 L12.870443,37.5780684 L14.2911412,31.4457519 C11.9715914,29.3928485 10.65,26.6853951 10.65,23.8 Z M19.7796538,32.7242004 C19.9602865,32.6488151 20.1553225,32.6108 20.3529091,32.6108 C20.4714495,32.6108 20.5914744,32.6252992 20.7101261,32.6536486 C21.7951847,32.9166399 22.9020645,33.05 24,33.05 C30.3370514,33.05 35.4681818,28.8816915 35.4681818,23.8 C35.4681818,18.7175307 30.3375662,14.55 24,14.55 C17.6628188,14.55 12.5318182,18.7176995 12.5318182,23.8 C12.5318182,26.1535241 13.6422508,28.4032765 15.6676257,30.1359484 C16.1087911,30.5117006 16.3033811,31.1068269 16.1710666,31.6735657 L15.5278561,34.4509647 L19.7796538,32.7242004 Z"></path>
        </g>
    </g>
</svg>