<?xml version="1.0" encoding="UTF-8" standalone="no"?>
<svg width="48px" height="48px" viewBox="0 0 48 48" version="1.1" xmlns="http://www.w3.org/2000/svg" xmlns:xlink="http://www.w3.org/1999/xlink">
    <!-- Generator: Sketch 45.2 (43514) - http://www.bohemiancoding.com/sketch -->
    <title>icon-gift</title>
    <desc>Created with Sketch.</desc>
    <defs></defs>
    <g id="Symbols" stroke="none" stroke-width="1" fill="none" fill-rule="evenodd">
        <g id="icon-gift" fill="#2D2D2D">
            <g transform="translate(10.859803, 11.000000)">
                <path d="M4.14019715,21.9905224 C4.14019715,22.5551823 4.58491708,23 5.14158409,23 L21.1388102,23 C21.6910318,23 22.1401972,22.5495528 22.1401972,21.9905224 L22.1401972,11 L4.14019715,11 L4.14019715,21.9905224 Z M2.14019715,9 L24.1401972,9 L24.1401972,21.9905224 C24.1401972,23.652611 22.7971159,25 21.1388102,25 L5.14158409,25 C3.48396386,25 2.14019715,23.6633689 2.14019715,21.9905224 L2.14019715,9 Z" id="Rectangle-11" fill-rule="nonzero"></path>
                <path d="M2.14019715,9 L24.1401972,9 L24.1401972,7 L2.14019715,7 L2.14019715,9 Z M0.140197152,5.99077797 C0.140197152,5.44358641 0.591475839,5 1.14349679,5 L25.1368975,5 C25.6910046,5 26.1401972,5.45097518 26.1401972,5.99077797 L26.1401972,10.009222 C26.1401972,10.5564136 25.6889185,11 25.1368975,11 L1.14349679,11 C0.589389699,11 0.140197152,10.5490248 0.140197152,10.009222 L0.140197152,5.99077797 Z" id="Rectangle-11-Copy" fill-rule="nonzero"></path>
                <rect id="Rectangle-12" x="12.1401972" y="11" width="1.99780942" height="12"></rect>
                <path d="M19.2341253,0.868995691 C20.4568967,2.04167188 20.4390858,3.95604147 19.1986396,5.14566826 C18.9922983,5.343556 18.7508753,5.52107227 18.4773767,5.67962731 C17.7309992,6.11232406 16.7705937,6.39382604 15.6748194,6.55720693 C15.1549319,6.63472258 14.6379179,6.68035637 14.1466192,6.70116841 C13.9744007,6.70846381 13.8174501,6.71213504 13.6786617,6.71303641 C13.5942818,6.71358442 13.5339406,6.71306244 13.5005465,6.71231765 L13.1493511,6.70448492 L13.1411838,6.36767759 C13.1404072,6.33565155 13.1398629,6.27778249 13.1404343,6.19685947 C13.1413742,6.06375708 13.1452023,5.91323654 13.1528093,5.74807361 C13.1745104,5.27690269 13.2220936,4.78107003 13.3029207,4.28248169 C13.473281,3.23159968 13.7668084,2.3105407 14.2179894,1.59474126 C14.3833177,1.3324476 14.5684173,1.10091531 14.7747585,0.903027569 C16.0152451,-0.286637986 18.0112714,-0.303759535 19.2341253,0.868995691 Z M17.9526148,2.16551988 C17.3678937,1.60475402 16.4134717,1.61294088 15.8203193,2.1817926 C15.721655,2.27641481 15.6331476,2.38712453 15.554094,2.51254314 C15.3383569,2.85481054 15.1980035,3.29522506 15.1165438,3.7977159 C15.0778955,4.03612141 15.0551431,4.27320927 15.0447664,4.49850485 C15.041129,4.57747933 15.0392986,4.64945239 15.0388492,4.71309676 C15.038576,4.751791 15.0388362,4.77946173 15.0392076,4.79477534 L15.0431129,4.95582348 L15.2110408,4.95956878 C15.2270086,4.95992491 15.2558614,4.96017451 15.2962086,4.95991247 C15.3625717,4.95948147 15.4376194,4.95772603 15.5199676,4.95423765 C15.7548875,4.94428615 16.0021035,4.92246584 16.2506934,4.88540088 C16.77465,4.8072785 17.2338785,4.67267522 17.5907671,4.4657765 C17.7215435,4.38996166 17.8369826,4.30508029 17.9356469,4.21045808 C18.5287799,3.6416249 18.5372965,2.72624795 17.9526148,2.16551988 Z" id="Path" fill-rule="nonzero"></path>
                <path d="M7.04630928,0.868528892 C8.26907268,-0.303577171 10.2652086,-0.286504192 11.5056466,0.902544223 C11.7119865,1.10033575 11.8970848,1.33175548 12.062412,1.59392162 C12.5135901,2.30937306 12.8071155,3.22998424 12.9774747,4.28035533 C13.0583012,4.77870126 13.1058841,5.27429286 13.1275851,5.74523471 C13.1351921,5.91031734 13.1390201,6.06076469 13.13996,6.19380237 C13.1405314,6.27468606 13.1399871,6.33252698 13.1392105,6.36453745 L13.1310432,6.70118103 L12.7798502,6.70900995 C12.7464563,6.70975438 12.6861155,6.71027611 12.6017361,6.70972836 C12.4629487,6.70882743 12.3059991,6.70515798 12.1337818,6.69786613 C11.6424863,6.67706421 11.1254757,6.63145261 10.6055917,6.55397464 C9.50982453,6.39067318 8.54942539,6.10930806 7.80305281,5.67682169 C7.52955609,5.51834373 7.28813462,5.34091376 7.08179473,5.14312223 C5.84131632,3.95403506 5.82346348,2.04071395 7.04630928,0.868528892 Z M8.39931486,2.16549295 C7.8143213,2.72625107 7.82286187,3.64155905 8.41629064,4.21040292 C8.51500097,4.30502382 8.63049386,4.38990401 8.76133114,4.46571781 C9.1183861,4.67261368 9.57782858,4.8072151 10.1020294,4.8853364 C10.3507351,4.92240085 10.5980663,4.94422085 10.8330957,4.95417222 C10.9154822,4.95766055 10.9905648,4.95941596 11.056959,4.95984696 C11.097325,4.96010899 11.1261912,4.9598594 11.1421664,4.95950328 L11.3101726,4.95575803 L11.3140797,4.79471211 C11.3144512,4.77939871 11.3147116,4.75172837 11.3144383,4.71303466 C11.3139886,4.64939116 11.3121573,4.5774191 11.3085183,4.49844571 C11.2981368,4.27315324 11.2753738,4.03606866 11.2367074,3.79766643 C11.1552098,3.29518253 11.014791,2.85477409 10.7989533,2.51251141 C10.7198629,2.38709454 10.6313143,2.27638634 10.5326039,2.18176544 C9.93919451,1.61294011 8.984269,1.60477262 8.39931486,2.16549295 Z" id="Path-Copy" fill-rule="nonzero"></path>
            </g>
        </g>
    </g>
</svg>