<svg width="48" height="48" viewBox="0 0 48 48" xmlns="http://www.w3.org/2000/svg"><title>icon-gift</title><g fill="#2D2D2D" fill-rule="evenodd"><path d="M15 32.99A.999.999 0 0 0 16.001 34H32C32.55 34 33 33.55 33 32.99V22H15v10.99zM13 20h22v12.99A3.005 3.005 0 0 1 31.999 36H16A2.999 2.999 0 0 1 13 32.99V20z" fill-rule="nonzero"/><path d="M13 20h22v-2H13v2zm-2-3.01c0-.546.451-.99 1.003-.99h23.994c.554 0 1.003.451 1.003.99v4.02c0 .546-.451.99-1.003.99H12.003A1.002 1.002 0 0 1 11 21.01v-4.02z" fill-rule="nonzero"/><path d="M23 22h1.998v12H23z"/><path d="M30.094 11.869c1.223 1.173 1.205 3.087-.036 4.277a3.762 3.762 0 0 1-.72.534c-.747.432-1.708.714-2.803.877a14.612 14.612 0 0 1-2.175.155l-.35-.008-.009-.336v-.171a12.92 12.92 0 0 1 .162-1.914c.17-1.051.464-1.972.915-2.688.165-.263.35-.494.557-.692 1.24-1.19 3.236-1.207 4.459-.034zm-1.282 1.297c-.584-.561-1.539-.553-2.132.016a1.743 1.743 0 0 0-.266.33c-.216.343-.356.783-.438 1.286a6.178 6.178 0 0 0-.077.997l.004.16.168.005h.085a6.987 6.987 0 0 0 .954-.075c.524-.078.984-.212 1.34-.42.131-.075.247-.16.345-.255.594-.568.602-1.484.017-2.044zM17.906 11.869c1.223-1.173 3.219-1.156 4.46.034.206.197.39.429.556.69.451.716.745 1.637.915 2.687A12.908 12.908 0 0 1 24 17.365l-.008.336-.351.008h-.178a14.618 14.618 0 0 1-1.996-.156c-1.096-.162-2.057-.444-2.803-.876a3.762 3.762 0 0 1-.721-.534c-1.24-1.189-1.259-3.102-.036-4.274zm1.353 1.296c-.585.561-.576 1.477.017 2.045a1.8 1.8 0 0 0 .345.256c.357.207.817.341 1.34.42a6.993 6.993 0 0 0 1.041.074l.168-.004.004-.161v-.082a6.175 6.175 0 0 0-.078-.915c-.081-.503-.221-.943-.437-1.285a1.743 1.743 0 0 0-.267-.331c-.593-.57-1.548-.577-2.133-.017z" fill-rule="nonzero"/></g></svg>