<svg width="48" height="48" viewBox="0 0 48 48" xmlns="http://www.w3.org/2000/svg" xmlns:xlink="http://www.w3.org/1999/xlink"><title>icon-settings</title><defs><rect id="a" x="14" width="6" height="6" rx="3"/><rect id="b" x="1" y="5" width="6" height="6" rx="3"/><rect id="c" x="8" y="10" width="6" height="6" rx="3"/></defs><g fill="none" fill-rule="evenodd"><path d="M14 19c0-.552.439-1 .999-1H34c.552 0 .999.444.999 1 0 .552-.439 1-.999 1H15A.997.997 0 0 1 14 19zm0 5c0-.552.439-1 .999-1H34c.552 0 .999.444.999 1 0 .552-.439 1-.999 1H15A.997.997 0 0 1 14 24zm0 5c0-.552.439-1 .999-1H34c.552 0 .999.444.999 1 0 .552-.439 1-.999 1H15A.997.997 0 0 1 14 29z" fill="#2D2D2D"/><g transform="translate(14 16)"><use fill="#FFF" xlink:href="#a"/><rect stroke="#2D2D2D" stroke-width="2" x="15" y="1" width="4" height="4" rx="2"/></g><g transform="translate(14 16)"><use fill="#FFF" xlink:href="#b"/><rect stroke="#2D2D2D" stroke-width="2" x="2" y="6" width="4" height="4" rx="2"/></g><g transform="translate(14 16)"><use fill="#FFF" xlink:href="#c"/><rect stroke="#2D2D2D" stroke-width="2" x="9" y="11" width="4" height="4" rx="2"/></g></g></svg>