<?xml version="1.0" encoding="UTF-8" standalone="no"?>
<svg width="48px" height="48px" viewBox="0 0 48 48" version="1.1" xmlns="http://www.w3.org/2000/svg" xmlns:xlink="http://www.w3.org/1999/xlink">
    <!-- Generator: Sketch 45.2 (43514) - http://www.bohemiancoding.com/sketch -->
    <title>icon-settings</title>
    <desc>Created with Sketch.</desc>
    <defs>
        <rect id="path-1" x="14" y="0" width="6" height="6" rx="3"></rect>
        <rect id="path-2" x="1" y="5" width="6" height="6" rx="3"></rect>
        <rect id="path-3" x="8" y="10" width="6" height="6" rx="3"></rect>
    </defs>
    <g id="Symbols" stroke="none" stroke-width="1" fill="none" fill-rule="evenodd">
        <g id="icon-settings">
            <g transform="translate(14.000000, 16.000000)">
                <path d="M0,3 C0,2.44771525 0.438614845,2 0.998746091,2 L20.0012539,2 C20.5528461,2 21,2.44386482 21,3 C21,3.55228475 20.5613852,4 20.0012539,4 L0.998746091,4 C0.447153856,4 0,3.55613518 0,3 Z M0,8 C0,7.44771525 0.438614845,7 0.998746091,7 L20.0012539,7 C20.5528461,7 21,7.44386482 21,8 C21,8.55228475 20.5613852,9 20.0012539,9 L0.998746091,9 C0.447153856,9 0,8.55613518 0,8 Z M0,13 C0,12.4477153 0.438614845,12 0.998746091,12 L20.0012539,12 C20.5528461,12 21,12.4438648 21,13 C21,13.5522847 20.5613852,14 20.0012539,14 L0.998746091,14 C0.447153856,14 0,13.5561352 0,13 Z" id="icon--menu-copy" fill="#2D2D2D"></path>
                <g id="Rectangle-22">
                    <use fill="#FFFFFF" fill-rule="evenodd" xlink:href="#path-1"></use>
                    <rect stroke="#2D2D2D" stroke-width="2" x="15" y="1" width="4" height="4" rx="2"></rect>
                </g>
                <g id="Rectangle-22-Copy">
                    <use fill="#FFFFFF" fill-rule="evenodd" xlink:href="#path-2"></use>
                    <rect stroke="#2D2D2D" stroke-width="2" x="2" y="6" width="4" height="4" rx="2"></rect>
                </g>
                <g id="Rectangle-22-Copy-2">
                    <use fill="#FFFFFF" fill-rule="evenodd" xlink:href="#path-3"></use>
                    <rect stroke="#2D2D2D" stroke-width="2" x="9" y="11" width="4" height="4" rx="2"></rect>
                </g>
            </g>
        </g>
    </g>
</svg>