<?xml version="1.0" encoding="UTF-8" standalone="no"?>
<svg width="48px" height="48px" viewBox="0 0 48 48" version="1.1" xmlns="http://www.w3.org/2000/svg" xmlns:xlink="http://www.w3.org/1999/xlink">
    <!-- Generator: Sketch 45.2 (43514) - http://www.bohemiancoding.com/sketch -->
    <title>icon-pinterest</title>
    <desc>Created with Sketch.</desc>
    <defs></defs>
    <g id="Symbols" stroke="none" stroke-width="1" fill="none" fill-rule="evenodd">
        <g id="icon-pinterest" fill="#2D2D2D">
            <g transform="translate(9.000000, 9.000000)">
                <path d="M15,28 C22.18,28 28,22.18 28,15 C28,7.82 22.18,2 15,2 C7.82,2 2,7.82 2,15 C2,22.18 7.82,28 15,28 M15,30 C6.716,30 0,23.284 0,15 C0,6.716 6.716,0 15,0 C23.284,0 30,6.716 30,15 C30,23.284 23.284,30 15,30" id="Page-1"></path>
                <path d="M15.2879191,7.00139105 C14.941772,7.04201864 14.5964374,7.09077176 14.2502903,7.13139935 C13.5986237,7.29390972 12.8884534,7.44016906 12.3619198,7.74893877 C10.9562051,8.57774167 9.98195537,9.53655288 9.32947622,11.0966525 C9.22384448,11.3485435 9.22059427,11.5923091 9.14340184,11.8685767 C8.64286989,13.6886929 9.53017653,15.5738133 10.6059952,16.2238547 C10.8131959,16.353863 11.284476,16.5732521 11.4575496,16.2807334 C11.5526181,16.118223 11.5314918,15.898834 11.5899955,15.7119471 C11.628998,15.5819388 11.7516933,15.3462987 11.723254,15.1919139 C11.6753135,14.9237718 11.3909203,14.7531359 11.2714752,14.5418724 C11.0285222,14.1112199 11.0163339,13.721195 10.8985139,13.1442832 C10.9074519,13.063028 10.91639,12.9898983 10.9253281,12.9086431 C10.9610804,12.2586016 11.0707749,11.7873216 11.2714752,11.324167 C11.8589502,9.96720537 12.803948,9.21153213 14.3299204,8.7646286 C14.6711922,8.65899686 15.6340662,8.49648649 16.1386609,8.61024375 C16.4409302,8.65899686 16.7423869,8.70774997 17.0430311,8.7646286 C18.1359134,9.10590039 18.9314016,9.73969085 19.3571788,10.7310041 C19.6236958,11.3485435 19.7025134,12.5348693 19.5172515,13.3230446 C19.4294959,13.6968184 19.4433093,14.0218392 19.3311772,14.363111 C18.9167757,15.6225664 18.3097995,16.7845155 16.9365868,17.1095363 C16.031404,17.3207998 15.3521107,16.7682645 15.1278464,16.1994782 C15.0660924,16.0450933 14.9604607,15.7607002 15.0214021,15.5006836 C15.2611049,14.4768682 15.607252,13.5668101 15.8729564,12.5429948 C16.1264726,11.5760581 15.6454419,10.8122593 14.8889561,10.6253724 C13.948021,10.4059834 13.2215997,11.2754139 12.9737713,11.8442002 C12.7763212,12.2992292 12.6576887,13.1361577 12.8136986,13.737446 C12.8640768,13.9324585 13.094029,14.4443662 13.0534014,14.6231276 C12.8713898,15.4113029 12.6658142,16.2563568 12.4415499,17.0282811 C12.2083475,17.8327074 12.082402,18.6615104 11.8565125,19.4415601 C11.7525059,19.799083 11.7557561,20.1809823 11.6704382,20.5547562 L11.6704382,21.099166 C11.5924332,21.4404377 11.6501244,22.0579772 11.723254,22.3911234 C11.770382,22.6105124 11.6956273,22.8786545 11.8036967,23.0411649 C11.8053218,23.1549222 11.8199477,23.1874243 11.8565125,23.2524284 C12.1896588,23.2443029 12.6479381,22.3667469 12.8136986,22.1067303 C13.1305939,21.6191992 13.4239251,21.099166 13.665253,20.5303796 C13.8830169,20.018472 13.9171441,19.4415601 14.0910302,18.8971504 C14.2161632,18.499 14.394112,18.0358454 14.4363647,17.5970674 L14.4631789,17.5970674 C14.5322458,17.840833 14.7825118,18.0114689 14.9685862,18.1414772 C15.5536235,18.5640041 16.5611878,18.9459035 17.6548827,18.6858869 C18.8932117,18.3933682 19.8788371,17.8164564 20.5280661,16.9551514 C21.0066591,16.3132355 21.3674321,15.5819388 21.6453249,14.7450104 C21.7818336,14.3387344 21.8102729,13.8837054 21.9110293,13.4530529 C22.1645455,12.3642334 21.8273365,11.0560249 21.5120664,10.3409792 C20.5573179,8.18771678 18.5283759,6.95263794 15.2879191,7.00139105 L15.2879191,7.00139105 Z" id="Path"></path>
            </g>
        </g>
    </g>
</svg>