<?xml version="1.0" encoding="UTF-8" standalone="no"?>
<svg width="48px" height="48px" viewBox="0 0 48 48" version="1.1" xmlns="http://www.w3.org/2000/svg" xmlns:xlink="http://www.w3.org/1999/xlink">
    <!-- Generator: Sketch 45.2 (43514) - http://www.bohemiancoding.com/sketch -->
    <title>icon-mail</title>
    <desc>Created with Sketch.</desc>
    <defs></defs>
    <g id="Symbols" stroke="none" stroke-width="1" fill="none" fill-rule="evenodd">
        <g id="icon-mail" fill-rule="nonzero" fill="#2D2D2D">
            <g transform="translate(13.000000, 18.000000)">
                <path d="M11.1401844,8.23177872 L9.8598156,8.23177872 L10.5,7.69829172 L11.1401844,8.23177872 Z M18.8598156,0.73177872 C19.2840925,0.378214639 19.9146572,0.435538703 20.2682213,0.8598156 C20.6217854,1.2840925 20.5644613,1.9146572 20.1401844,2.26822128 L11.1401844,9.76822128 C10.7693384,10.0772596 10.2306616,10.0772596 9.8598156,9.76822128 L0.8598156,2.26822128 C0.435538703,1.9146572 0.378214639,1.2840925 0.73177872,0.8598156 C1.0853428,0.435538703 1.7159075,0.378214639 2.1401844,0.73177872 L10.5,7.69829172 L18.8598156,0.73177872 Z" id="Line"></path>
                <path d="M19.0054385,12 C18.9952323,12 19,2.00585866 19,2.00585866 C19,2.00065822 1.99456145,2 1.99456145,2 C2.00476771,2 2,11.9941413 2,11.9941413 C2,11.9993418 19.0054385,12 19.0054385,12 Z M0,2.00585866 C0,0.898053512 0.90234375,0 1.99456145,0 L19.0054385,0 C20.1070044,0 21,0.897060126 21,2.00585866 L21,11.9941413 C21,13.1019465 20.0976562,14 19.0054385,14 L1.99456145,14 C0.892995579,14 0,13.1029399 0,11.9941413 L0,2.00585866 Z" id="Rectangle-2"></path>
            </g>
        </g>
    </g>
</svg>