<svg width="48" height="48" viewBox="0 0 48 48" xmlns="http://www.w3.org/2000/svg"><title>icon-mail</title><g fill-rule="nonzero" fill="#2D2D2D"><path d="M24.14 26.232h-1.28l.64-.534.64.534zm7.72-7.5a1 1 0 0 1 1.28 1.536l-9 7.5a1 1 0 0 1-1.28 0l-9-7.5a1 1 0 0 1 1.28-1.536l8.36 6.966 8.36-6.966z"/><path d="M32.005 30c-.01 0-.005-9.994-.005-9.994C32 20 14.995 20 14.995 20c.01 0 .005 9.994.005 9.994C15 30 32.005 30 32.005 30zM13 20.006c0-1.108.902-2.006 1.995-2.006h17.01A2 2 0 0 1 34 20.006v9.988A2.006 2.006 0 0 1 32.005 32h-17.01A2 2 0 0 1 13 29.994v-9.988z"/></g></svg>