<?xml version="1.0" encoding="UTF-8" standalone="no"?>
<svg width="48px" height="48px" viewBox="0 0 48 48" version="1.1" xmlns="http://www.w3.org/2000/svg" xmlns:xlink="http://www.w3.org/1999/xlink">
    <!-- Generator: Sketch 45.2 (43514) - http://www.bohemiancoding.com/sketch -->
    <title>icon-measure</title>
    <desc>Created with Sketch.</desc>
    <defs></defs>
    <g id="Symbols" stroke="none" stroke-width="1" fill="none" fill-rule="evenodd">
        <g id="icon-measure" fill="#2D2D2D">
            <g transform="translate(13.603505, 13.000000)">
                <path d="M3.6888307,18.0539019 L17.4761938,18.0539019 C18.0146712,18.0539019 18.4505272,17.6179479 18.4505272,17.0795033 L18.4505272,3.2912173 L3.6888307,18.0539019 Z M18.3343164,0.655237605 C19.4732262,-0.483748482 20.3964951,-0.100195187 20.3964951,1.51341758 L20.3964951,17.0795033 C20.3964951,18.6924491 19.0896986,20 17.4761938,20 L1.91114997,20 C0.298312133,20 -0.0893774033,19.0801646 1.05302744,17.9376833 L18.3343164,0.655237605 Z" id="Rectangle-17" fill-rule="nonzero"></path>
                <path d="M12.9846659,7.009 C12.9846659,6.452 13.4281796,6 13.9835706,6 C14.534966,6 14.9824754,6.443 14.9824754,7.009 L14.9824754,8.99 C14.9824754,9.548 14.5389617,10 13.9835706,10 C13.4321752,10 12.9846659,9.556 12.9846659,8.99 L12.9846659,7.009 Z" id="Fill-8" transform="translate(13.983571, 8.000000) rotate(-45.000000) translate(-13.983571, -8.000000) "></path>
                <path d="M9.98795181,10.009 C9.98795181,9.452 10.4314655,9 10.9868565,9 C11.5382519,9 11.9857612,9.443 11.9857612,10.009 L11.9857612,11.99 C11.9857612,12.548 11.5422475,13 10.9868565,13 C10.4354611,13 9.98795181,12.556 9.98795181,11.99 L9.98795181,10.009 Z" id="Fill-8-Copy" transform="translate(10.986857, 11.000000) rotate(-45.000000) translate(-10.986857, -11.000000) "></path>
                <path d="M6.99123768,13.009 C6.99123768,12.452 7.43475137,12 7.99014239,12 C8.54153779,12 8.9890471,12.443 8.9890471,13.009 L8.9890471,14.99 C8.9890471,15.548 8.54553341,16 7.99014239,16 C7.43874699,16 6.99123768,15.556 6.99123768,14.99 L6.99123768,13.009 Z" id="Fill-8-Copy-2" transform="translate(7.990142, 14.000000) rotate(-45.000000) translate(-7.990142, -14.000000) "></path>
            </g>
        </g>
    </g>
</svg>