<?xml version="1.0" encoding="UTF-8" standalone="no"?>
<svg width="48px" height="48px" viewBox="0 0 48 48" version="1.1" xmlns="http://www.w3.org/2000/svg" xmlns:xlink="http://www.w3.org/1999/xlink">
    <!-- Generator: Sketch 45.2 (43514) - http://www.bohemiancoding.com/sketch -->
    <title>icon-favourites</title>
    <desc>Created with Sketch.</desc>
    <defs></defs>
    <g id="Symbols" stroke="none" stroke-width="1" fill="none" fill-rule="evenodd">
        <g id="icon-favourites" fill="#2D2D2D" fill-rule="nonzero">
            <path d="M14.1164804,25.8965831 C11.29396,23.0740627 11.2953205,18.4906442 14.1156773,15.6702874 C16.6225722,13.1633925 20.6499151,13.6153766 23.6357368,16.0912156 C26.6186621,13.6162439 30.6526028,13.1646787 33.1572926,15.6693685 C35.9800981,18.492174 35.9804138,23.0717398 33.1596287,25.8925249 L23.6389069,35.4132467 L14.1164804,25.8965831 Z M31.7454151,24.4783113 C33.785108,22.4386185 33.7848796,19.1253826 31.743079,17.0835821 C29.9384385,15.2789415 26.671783,15.8215531 24.3015776,18.188851 L23.5918073,18.8129571 L22.9286556,18.1498344 C20.5999825,15.821263 17.3376396,15.2767522 15.5298908,17.084501 C13.4903947,19.1239971 13.4894101,22.4410857 15.530694,24.4823695 L23.6360255,32.587701 L31.7454151,24.4783113 Z"></path>
        </g>
    </g>
</svg>