<svg width="48" height="48" viewBox="0 0 48 48" xmlns="http://www.w3.org/2000/svg"><title>icon-favourites</title><path d="M14.116 25.897a7.236 7.236 0 0 1 0-10.227c2.507-2.507 6.534-2.055 9.52.421 2.983-2.475 7.017-2.926 9.521-.422a7.231 7.231 0 0 1 .003 10.224l-9.521 9.52-9.523-9.516zm17.63-1.419a5.231 5.231 0 0 0-.003-7.394c-1.805-1.805-5.071-1.262-7.441 1.105l-.71.624-.663-.663c-2.329-2.329-5.591-2.873-7.4-1.065a5.236 5.236 0 0 0 .002 7.397l8.105 8.106 8.11-8.11z" fill="#2D2D2D" fill-rule="nonzero"/></svg>