<svg width="48" height="48" viewBox="0 0 48 48" xmlns="http://www.w3.org/2000/svg"><title>icon-phone</title><path d="M29.886 33.5c2.016 0 3.544-1.726 3.61-2.896a.821.821 0 0 1-.004-.086.424.424 0 0 0-.124-.3.445.445 0 0 0-.076-.057.902.902 0 0 1-.072-.05l-3.598-2.798a.899.899 0 0 1-.08-.07.426.426 0 0 0-.3-.125.397.397 0 0 0-.213.063l-.952.959a.679.679 0 0 1-.047.045c-.318.312-.745.49-1.19.49-.44 0-.862-.174-1.176-.475a17.098 17.098 0 0 1-3.884-3.875 1.701 1.701 0 0 1 .072-2.41l.96-.953a.397.397 0 0 0 .062-.212.422.422 0 0 0-.125-.3.777.777 0 0 1-.07-.08l-2.799-3.598a.921.921 0 0 1-.048-.07.451.451 0 0 0-.058-.077.422.422 0 0 0-.3-.125c-1.17 0-2.975 1.551-2.975 3.613 0 .532.117 1.05.35 1.542.022.047.04.096.053.146a26.068 26.068 0 0 0 11.3 11.298c.049.013.096.03.142.05a3.58 3.58 0 0 0 1.542.351zm-6.423-10.254a1.639 1.639 0 0 0-.004-.007l.004.007zm3.195 3.485l.009-.009-.009.009zm-3.448-3.35a39.68 39.68 0 0 0 .035-.034l-.035.034zm3.579 3.165l.984-.939.197-.123c.38-.236.817-.366 1.272-.366.677 0 1.225.258 1.652.651l3.509 2.729a2.377 2.377 0 0 1 1.09 2.02c0-.037-.003-.078-.007-.122l.016.16-.009.16c-.138 2.437-2.747 4.784-5.607 4.784-.796 0-1.574-.17-2.291-.493l-.111-.03-.19-.097A28.068 28.068 0 0 1 15.12 22.71l-.096-.189-.03-.11a5.572 5.572 0 0 1-.496-2.299c0-2.933 2.48-5.612 4.975-5.612a2.374 2.374 0 0 1 2.019 1.088l2.726 3.505c.39.414.655.974.655 1.657 0 .451-.127.886-.362 1.265l-.124.2-.167.166-.803.794a15.07 15.07 0 0 0 3.37 3.371z" fill="#2D2D2D" fill-rule="nonzero"/></svg>