<?xml version="1.0" encoding="UTF-8" standalone="no"?>
<svg width="49px" height="48px" viewBox="0 0 49 48" version="1.1" xmlns="http://www.w3.org/2000/svg" xmlns:xlink="http://www.w3.org/1999/xlink">
    <!-- Generator: Sketch 45.2 (43514) - http://www.bohemiancoding.com/sketch -->
    <title>icon-basket</title>
    <desc>Created with Sketch.</desc>
    <defs></defs>
    <g id="Symbols" stroke="none" stroke-width="1" fill="none" fill-rule="evenodd">
        <g id="icon-basket" fill-rule="nonzero" fill="#2D2D2D">
            <g transform="translate(15.982475, 12.000000)">
                <path d="M2.01752464,21 L16.0175246,21 L16.0175246,6 L2.01752464,6 L2.01752464,21 Z M0.017524644,5.99742191 C0.017524644,4.89427625 0.910147443,4 2.01261394,4 L16.0224354,4 C17.1242927,4 18.0175246,4.89092539 18.0175246,5.99742191 L18.0175246,21.0025781 C18.0175246,22.1057238 17.1249018,23 16.0224354,23 L2.01261394,23 C0.910756546,23 0.017524644,22.1090746 0.017524644,21.0025781 L0.017524644,5.99742191 Z" id="Rectangle-9"></path>
                <path d="M2.01752464,17 L16.0175246,17 L16.0175246,19 L2.01752464,19 L2.01752464,17 Z M7.01752464,8 L5.01752464,8 L5.01752464,4.00650452 C5.01752464,1.79377317 6.8128808,0 9.01752464,0 C11.2266636,0 13.0175246,1.79394555 13.0175246,4.00650452 L13.0175246,8 L11.0175246,8 L11.0175246,4.00650452 C11.0175246,2.89771543 10.1212933,2 9.01752464,2 C7.91627803,2 7.01752464,2.89951662 7.01752464,4.00650452 L7.01752464,8 Z" id="Combined-Shape"></path>
            </g>
        </g>
    </g>
</svg>