<?xml version="1.0" encoding="UTF-8" standalone="no"?>
<svg width="48px" height="48px" viewBox="0 0 48 48" version="1.1" xmlns="http://www.w3.org/2000/svg" xmlns:xlink="http://www.w3.org/1999/xlink">
    <!-- Generator: Sketch 45.2 (43514) - http://www.bohemiancoding.com/sketch -->
    <title>icon-clock</title>
    <desc>Created with Sketch.</desc>
    <defs></defs>
    <g id="Symbols" stroke="none" stroke-width="1" fill="none" fill-rule="evenodd">
        <g id="icon-clock" fill="#2D2D2D">
            <g transform="translate(12.000000, 12.000000)">
                <path d="M12,2.5 C6.75291041,2.5 2.5,6.75291041 2.5,12 C2.5,17.2464333 6.75329958,21.5 12,21.5 C17.2463723,21.5 21.5,17.2462387 21.5,12 C21.5,6.753105 17.2467615,2.5 12,2.5 Z M12,0.5 C18.3511364,0.5 23.5,5.64834091 23.5,12 C23.5,18.3506136 18.3511364,23.5 12,23.5 C5.64834091,23.5 0.5,18.3506136 0.5,12 C0.5,5.64834091 5.64834091,0.5 12,0.5 Z" id="Path" fill-rule="nonzero"></path>
                <path d="M12,6 C11.4477153,6 11,5.55228475 11,5 C11,4.44771525 11.4477153,4 12,4 C12.5522847,4 13,4.44771525 13,5 C13,5.55228475 12.5522847,6 12,6 Z M15,6.80384758 C14.5217074,6.5277052 14.3578322,5.9161148 14.6339746,5.43782217 C14.910117,4.95952955 15.5217074,4.79565439 16,5.07179677 C16.4782926,5.34793914 16.6421678,5.95952955 16.3660254,6.43782217 C16.089883,6.9161148 15.4782926,7.07998995 15,6.80384758 Z M17.1961524,9 C16.92001,8.52170738 17.0838852,7.91011697 17.5621778,7.6339746 C18.0404704,7.35783222 18.6520609,7.52170738 18.9282032,8 C19.2043456,8.47829262 19.0404704,9.08988303 18.5621778,9.3660254 C18.0838852,9.64216778 17.4722948,9.47829262 17.1961524,9 Z M18,12 C18,11.4477153 18.4477153,11 19,11 C19.5522847,11 20,11.4477153 20,12 C20,12.5522847 19.5522847,13 19,13 C18.4477153,13 18,12.5522847 18,12 Z M17.1961524,15 C17.4722948,14.5217074 18.0838852,14.3578322 18.5621778,14.6339746 C19.0404704,14.910117 19.2043456,15.5217074 18.9282032,16 C18.6520609,16.4782926 18.0404704,16.6421678 17.5621778,16.3660254 C17.0838852,16.089883 16.92001,15.4782926 17.1961524,15 Z M15,17.1961524 C15.4782926,16.92001 16.089883,17.0838852 16.3660254,17.5621778 C16.6421678,18.0404704 16.4782926,18.6520609 16,18.9282032 C15.5217074,19.2043456 14.910117,19.0404704 14.6339746,18.5621778 C14.3578322,18.0838852 14.5217074,17.4722948 15,17.1961524 Z M12,18 C12.5522847,18 13,18.4477153 13,19 C13,19.5522847 12.5522847,20 12,20 C11.4477153,20 11,19.5522847 11,19 C11,18.4477153 11.4477153,18 12,18 Z M9,17.1961524 C9.47829262,17.4722948 9.64216778,18.0838852 9.3660254,18.5621778 C9.08988303,19.0404704 8.47829262,19.2043456 8,18.9282032 C7.52170738,18.6520609 7.35783222,18.0404704 7.6339746,17.5621778 C7.91011697,17.0838852 8.52170738,16.92001 9,17.1961524 Z M6.80384758,15 C7.07998995,15.4782926 6.9161148,16.089883 6.43782217,16.3660254 C5.95952955,16.6421678 5.34793914,16.4782926 5.07179677,16 C4.79565439,15.5217074 4.95952955,14.910117 5.43782217,14.6339746 C5.9161148,14.3578322 6.5277052,14.5217074 6.80384758,15 Z M6,12 C6,12.5522847 5.55228475,13 5,13 C4.44771525,13 4,12.5522847 4,12 C4,11.4477153 4.44771525,11 5,11 C5.55228475,11 6,11.4477153 6,12 Z M6.80384758,9 C6.5277052,9.47829262 5.9161148,9.64216778 5.43782217,9.3660254 C4.95952955,9.08988303 4.79565439,8.47829262 5.07179677,8 C5.34793914,7.52170738 5.95952955,7.35783222 6.43782217,7.6339746 C6.9161148,7.91011697 7.07998995,8.52170738 6.80384758,9 Z M9,6.80384758 C8.52170738,7.07998995 7.91011697,6.9161148 7.6339746,6.43782217 C7.35783222,5.95952955 7.52170738,5.34793914 8,5.07179677 C8.47829262,4.79565439 9.08988303,4.95952955 9.3660254,5.43782217 C9.64216778,5.9161148 9.47829262,6.5277052 9,6.80384758 Z" id="Oval-2-Copy"></path>
                <rect id="Rectangle-6" x="11" y="4" width="2" height="9" rx="1"></rect>
                <rect id="Rectangle-6-Copy" x="11" y="11" width="6" height="2" rx="1"></rect>
            </g>
        </g>
    </g>
</svg>