<svg width="48" height="48" viewBox="0 0 48 48" xmlns="http://www.w3.org/2000/svg"><title>icon-clock</title><g transform="translate(12 12)" fill="#2D2D2D" fill-rule="evenodd"><path d="M12 2.5a9.5 9.5 0 1 0 0 19 9.5 9.5 0 0 0 0-19zm0-2C18.351.5 23.5 5.648 23.5 12c0 6.35-5.149 11.5-11.5 11.5C5.648 23.5.5 18.35.5 12 .5 5.648 5.648.5 12 .5z" fill-rule="nonzero"/><path d="M12 6a1 1 0 1 1 0-2 1 1 0 0 1 0 2zm3 .804a1 1 0 1 1 1-1.732 1 1 0 0 1-1 1.732zM17.196 9a1 1 0 1 1 1.732-1 1 1 0 0 1-1.732 1zM18 12a1 1 0 1 1 2 0 1 1 0 0 1-2 0zm-.804 3a1 1 0 1 1 1.732 1 1 1 0 0 1-1.732-1zM15 17.196a1 1 0 1 1 1 1.732 1 1 0 0 1-1-1.732zM12 18a1 1 0 1 1 0 2 1 1 0 0 1 0-2zm-3-.804a1 1 0 1 1-1 1.732 1 1 0 0 1 1-1.732zM6.804 15a1 1 0 1 1-1.732 1 1 1 0 0 1 1.732-1zM6 12a1 1 0 1 1-2 0 1 1 0 0 1 2 0zm.804-3a1 1 0 1 1-1.732-1 1 1 0 0 1 1.732 1zM9 6.804a1 1 0 1 1-1-1.732 1 1 0 0 1 1 1.732z"/><rect x="11" y="4" width="2" height="9" rx="1"/><rect x="11" y="11" width="6" height="2" rx="1"/></g></svg>