<?xml version="1.0" encoding="UTF-8" standalone="no"?>
<svg width="48px" height="48px" viewBox="0 0 48 48" version="1.1" xmlns="http://www.w3.org/2000/svg" xmlns:xlink="http://www.w3.org/1999/xlink">
    <!-- Generator: Sketch 45.2 (43514) - http://www.bohemiancoding.com/sketch -->
    <title>icon-googleplus</title>
    <desc>Created with Sketch.</desc>
    <defs></defs>
    <g id="Symbols" stroke="none" stroke-width="1" fill="none" fill-rule="evenodd">
        <g id="icon-googleplus" fill="#2D2D2D">
            <g transform="translate(9.000000, 9.000000)">
                <path d="M15,28 C22.18,28 28,22.18 28,15 C28,7.82 22.18,2 15,2 C7.82,2 2,7.82 2,15 C2,22.18 7.82,28 15,28 M15,30 C6.716,30 0,23.284 0,15 C0,6.716 6.716,0 15,0 C23.284,0 30,6.716 30,15 C30,23.284 23.284,30 15,30" id="Page-1"></path>
                <path d="M19.6323588,9.78196258 L18.0510567,9.78196258 L18.0510567,12.1515462 L15.6743644,12.1515462 L15.6743644,13.7312685 L18.0510567,13.7312685 L18.0510567,16.0929535 L19.6323588,16.0929535 L19.6323588,13.7312685 L22.0130005,13.7312685 L22.0130005,12.1515462 L19.6323588,12.1515462 L19.6323588,9.78196258 Z M10.9367769,20.3818998 C9.80885516,20.3818998 8.92579034,19.6552275 8.92579034,18.7310899 C8.92579034,17.8780398 9.95971864,17.1355703 11.1389814,17.1355703 L11.1389814,16.8038286 L11.169786,17.1355703 C11.4241213,17.1355703 11.670558,17.1750634 11.9043569,17.2461509 L12.1381558,17.4120217 C12.7368706,17.8464454 13.0543948,18.0834037 13.1483883,18.4783343 C13.172874,18.5810163 13.183932,18.6836982 13.183932,18.7863802 C13.183932,19.8447942 12.4280349,20.3818998 10.9367769,20.3818998 Z M9.68405709,12.0014725 C9.60744055,11.3932794 9.73539806,10.832478 10.0252771,10.5007363 C10.2029959,10.2953724 10.4304759,10.1847918 10.6840214,10.1847918 L10.6840214,9.8609487 L10.6848112,9.8609487 L10.7132462,10.1926904 C11.4723028,10.2163862 12.1989751,11.1089294 12.3340414,12.1910392 C12.4114478,12.807131 12.2787511,13.375831 11.9809734,13.7233699 C11.8048344,13.9287338 11.5813037,14.0314158 11.3056421,14.0314158 L11.3040624,14.0314158 C10.560803,14.00772 9.81912335,13.0756838 9.68405709,12.0014725 Z M13.3782379,15.9507785 C12.9730391,15.6506313 12.5946956,15.208309 12.5804781,15.066134 C12.5804781,14.8291756 12.5804781,14.7264937 13.1381201,14.2683742 C13.8616329,13.6759783 14.259723,12.8940157 14.259723,12.07256 C14.259723,11.361685 14.0614678,10.729796 13.7186681,10.2637779 L14.0211849,10.2637779 L15.6925312,9 L11.1666265,9 C9.35073566,9 7.7583755,10.4217501 7.7583755,12.0488642 C7.7583755,13.7312685 8.98818938,15.0029451 10.6413689,15.0740326 C10.6153034,15.1925118 10.6026657,15.3109909 10.6026657,15.4215715 C10.6026657,15.6664285 10.6571661,15.9033868 10.7685365,16.124548 C8.71884671,16.1324466 6.993,17.5068051 6.993,19.1260205 C6.993,20.5793651 8.65486795,21.6377791 10.9438857,21.6377791 C13.4161512,21.6377791 14.7494369,20.0896512 14.7494369,18.628408 C14.7494369,17.4199203 14.3774123,16.693248 13.3782379,15.9507785 Z" id="Fill-255"></path>
            </g>
        </g>
    </g>
</svg>