<svg width="48" height="48" viewBox="0 0 48 48" xmlns="http://www.w3.org/2000/svg"><title>icon-googleplus</title><g fill="#2D2D2D" fill-rule="evenodd"><path d="M24 37c7.18 0 13-5.82 13-13s-5.82-13-13-13-13 5.82-13 13 5.82 13 13 13m0 2c-8.284 0-15-6.716-15-15 0-8.284 6.716-15 15-15 8.284 0 15 6.716 15 15 0 8.284-6.716 15-15 15"/><path d="M28.632 18.782h-1.58v2.37h-2.378v1.58h2.377v2.361h1.581v-2.362h2.381v-1.58h-2.38v-2.369zm-8.695 10.6c-1.128 0-2.011-.727-2.011-1.65 0-.854 1.034-1.596 2.213-1.596v-.332l.03.332c.255 0 .502.04.735.11l.234.166c.599.434.916.671 1.01 1.066.025.103.036.206.036.308 0 1.059-.756 1.596-2.247 1.596zm-1.253-8.38c-.077-.609.051-1.17.341-1.501a.857.857 0 0 1 .659-.316v-.324l.03.332c.758.023 1.485.916 1.62 1.998.077.616-.055 1.185-.353 1.532a.848.848 0 0 1-.675.308h-.002c-.743-.023-1.485-.955-1.62-2.03zm3.694 3.949c-.405-.3-.783-.743-.798-.885 0-.237 0-.34.558-.798.724-.592 1.122-1.374 1.122-2.195 0-.711-.199-1.343-.541-1.81h.302L24.693 18h-4.526c-1.816 0-3.409 1.422-3.409 3.049 0 1.682 1.23 2.954 2.883 3.025a1.549 1.549 0 0 0 .127 1.05c-2.05.008-3.775 1.383-3.775 3.002 0 1.453 1.662 2.512 3.95 2.512 2.473 0 3.806-1.548 3.806-3.01 0-1.208-.372-1.935-1.37-2.677z"/></g></svg>