<svg width="48" height="48" viewBox="0 0 48 48" xmlns="http://www.w3.org/2000/svg"><title>icon-zoomout</title><path d="M29.747 29.312l4.955 4.952a1.016 1.016 0 1 1-1.44 1.438l-4.956-4.953A9.963 9.963 0 0 1 22 32.985c-5.523 0-10-4.474-10-9.992C12 17.473 16.477 13 22 13s10 4.474 10 9.993a9.947 9.947 0 0 1-2.253 6.32zm-7.712 1.71c4.419 0 8-3.579 8-7.994 0-4.415-3.581-7.994-8-7.994-4.418 0-8 3.58-8 7.994 0 4.415 3.582 7.994 8 7.994zM17 23c0-.552.456-1 .995-1h8.01c.55 0 .995.444.995 1 0 .552-.456 1-.995 1h-8.01A.995.995 0 0 1 17 23z" fill="#2D2D2D" fill-rule="nonzero"/></svg>