<?xml version="1.0" encoding="UTF-8" standalone="no"?>
<svg width="48px" height="48px" viewBox="0 0 48 48" version="1.1" xmlns="http://www.w3.org/2000/svg" xmlns:xlink="http://www.w3.org/1999/xlink">
    <!-- Generator: Sketch 45.2 (43514) - http://www.bohemiancoding.com/sketch -->
    <title>icon-zoomout</title>
    <desc>Created with Sketch.</desc>
    <defs></defs>
    <g id="Symbols" stroke="none" stroke-width="1" fill="none" fill-rule="evenodd">
        <g id="icon-zoomout" fill="#2D2D2D" fill-rule="nonzero">
            <path d="M29.7465845,29.3122224 L34.7019099,34.2638871 C35.0993634,34.6610469 35.0993634,35.3049703 34.7019099,35.7021301 C34.3044564,36.09929 33.660057,36.09929 33.2626036,35.7021301 L28.3055488,30.7487374 C26.5851255,32.1470409 24.3905193,32.9852249 22,32.9852249 C16.4771525,32.9852249 12,28.5113799 12,22.9926124 C12,17.473845 16.4771525,13 22,13 C27.5228475,13 32,17.473845 32,22.9926124 C32,25.3900446 31.1550902,27.5902834 29.7465845,29.3122224 Z M22.0354865,31.0221627 C26.4537645,31.0221627 30.0354865,27.4430867 30.0354865,23.0280728 C30.0354865,18.6130588 26.4537645,15.0339828 22.0354865,15.0339828 C17.6172085,15.0339828 14.0354865,18.6130588 14.0354865,23.0280728 C14.0354865,27.4430867 17.6172085,31.0221627 22.0354865,31.0221627 Z M17,23 C17,22.4477153 17.4556644,22 17.9953976,22 L26.0046024,22 C26.5543453,22 27,22.4438648 27,23 C27,23.5522847 26.5443356,24 26.0046024,24 L17.9953976,24 C17.4456547,24 17,23.5561352 17,23 Z"></path>
        </g>
    </g>
</svg>