<?xml version="1.0" encoding="UTF-8" standalone="no"?>
<svg width="48px" height="48px" viewBox="0 0 48 48" version="1.1" xmlns="http://www.w3.org/2000/svg" xmlns:xlink="http://www.w3.org/1999/xlink">
    <!-- Generator: Sketch 45.2 (43514) - http://www.bohemiancoding.com/sketch -->
    <title>icon-chat</title>
    <desc>Created with Sketch.</desc>
    <defs></defs>
    <g id="Symbols" stroke="none" stroke-width="1" fill="none" fill-rule="evenodd">
        <g id="icon-chat" fill="#2D2D2D" fill-rule="nonzero">
            <path d="M19.7796538,31.7242004 C19.9602865,31.6488151 20.1553225,31.6108 20.3529091,31.6108 C20.4714495,31.6108 20.5914744,31.6252992 20.7101261,31.6536486 C21.7951847,31.9166399 22.9020645,32.05 24,32.05 C30.3370514,32.05 35.4681818,27.8816915 35.4681818,22.8 C35.4681818,17.7175307 30.3375662,13.55 24,13.55 C17.6628188,13.55 12.5318182,17.7176995 12.5318182,22.8 C12.5318182,25.1535241 13.6422508,27.4032765 15.6676257,29.1359484 C16.1087911,29.5117006 16.3033811,30.1068269 16.1710666,30.6735657 L15.5278561,33.4509647 L19.7796538,31.7242004 Z M10.65,22.8 C10.65,16.6261174 16.6396038,11.65 24,11.65 C31.3600075,11.65 37.35,16.6262841 37.35,22.8 C37.35,28.9737159 31.3600075,33.95 24,33.95 C22.7790971,33.95 21.5685295,33.8058997 20.3808755,33.5278063 L12.870443,36.5780684 L14.2911412,30.4457519 C11.9715914,28.3928485 10.65,25.6853951 10.65,22.8 Z M28.9090909,21.35 C28.1248289,21.35 27.4863636,21.9981386 27.4863636,22.8 C27.4863636,23.6018614 28.1248289,24.25 28.9090909,24.25 C29.6933529,24.25 30.3318182,23.6018614 30.3318182,22.8 C30.3318182,21.9981386 29.6933529,21.35 28.9090909,21.35 Z M24,21.35 C23.215738,21.35 22.5772727,21.9981386 22.5772727,22.8 C22.5772727,23.6018614 23.215738,24.25 24,24.25 C24.784262,24.25 25.4227273,23.6018614 25.4227273,22.8 C25.4227273,21.9981386 24.784262,21.35 24,21.35 Z M19.0909091,21.35 C18.3066471,21.35 17.6681818,21.9981386 17.6681818,22.8 C17.6681818,23.6018614 18.3066471,24.25 19.0909091,24.25 C19.8751711,24.25 20.5136364,23.6018614 20.5136364,22.8 C20.5136364,21.9981386 19.8751711,21.35 19.0909091,21.35 Z"></path>
        </g>
    </g>
</svg>