<svg width="48" height="48" viewBox="0 0 48 48" xmlns="http://www.w3.org/2000/svg"><title>icon-chat</title><path d="M19.78 31.724a1.488 1.488 0 0 1 .93-.07c1.085.263 2.192.396 3.29.396 6.337 0 11.468-4.168 11.468-9.25S30.338 13.55 24 13.55c-6.337 0-11.468 4.168-11.468 9.25 0 2.354 1.11 4.603 3.136 6.336.44.376.635.97.503 1.538l-.643 2.777 4.252-1.727zM10.65 22.8c0-6.174 5.99-11.15 13.35-11.15 7.36 0 13.35 4.976 13.35 11.15S31.36 33.95 24 33.95c-1.22 0-2.431-.144-3.62-.422l-7.51 3.05 1.421-6.132c-2.32-2.053-3.641-4.76-3.641-7.646zm18.26-1.45c-.785 0-1.424.648-1.424 1.45 0 .802.639 1.45 1.423 1.45s1.423-.648 1.423-1.45c0-.802-.639-1.45-1.423-1.45zm-4.91 0c-.784 0-1.423.648-1.423 1.45 0 .802.639 1.45 1.423 1.45s1.423-.648 1.423-1.45c0-.802-.639-1.45-1.423-1.45zm-4.91 0c-.783 0-1.422.648-1.422 1.45 0 .802.639 1.45 1.423 1.45s1.423-.648 1.423-1.45c0-.802-.639-1.45-1.423-1.45z" fill="#2D2D2D" fill-rule="nonzero"/></svg>