<?xml version="1.0" encoding="UTF-8" standalone="no"?>
<svg width="48px" height="48px" viewBox="0 0 48 48" version="1.1" xmlns="http://www.w3.org/2000/svg" xmlns:xlink="http://www.w3.org/1999/xlink">
    <!-- Generator: Sketch 45.2 (43514) - http://www.bohemiancoding.com/sketch -->
    <title>icon-arrow__down</title>
    <desc>Created with Sketch.</desc>
    <defs></defs>
    <g id="Symbols" stroke="none" stroke-width="1" fill="none" fill-rule="evenodd">
        <g id="icon-arrow__down" fill="#2D2D2D">
            <path d="M12.6106296,24.653181 L18.6585335,30.9159688 C19.0416082,31.3126542 19.0328619,31.9425657 18.6328117,32.3288897 C18.2355313,32.7125389 17.6026197,32.7016511 17.2198539,32.3052856 L9.57653112,24.3903931 C9.37827465,24.1850925 9.28496651,23.9173229 9.29653504,23.653181 C9.28496651,23.3890391 9.37827465,23.1212694 9.57653112,22.9159688 L17.2198539,15.0010764 C17.6026197,14.6047109 18.2355313,14.593823 18.6328117,14.9774723 C19.0328619,15.3637962 19.0416082,15.9937077 18.6585335,16.3903931 L12.6106296,22.653181 L37.6209975,22.653181 C38.1713685,22.653181 38.6175323,23.0970458 38.6175323,23.653181 C38.6175323,24.2054657 38.1777192,24.653181 37.6209975,24.653181 L12.6106296,24.653181 Z" transform="translate(23.956555, 23.653181) rotate(-90.000000) translate(-23.956555, -23.653181) "></path>
        </g>
    </g>
</svg>