<svg width="48" height="48" viewBox="0 0 48 48" xmlns="http://www.w3.org/2000/svg"><title>icon-facebook</title><g fill="#2D2D2D" fill-rule="evenodd"><path d="M24 37c7.18 0 13-5.82 13-13s-5.82-13-13-13-13 5.82-13 13 5.82 13 13 13m0 2c-8.284 0-15-6.716-15-15 0-8.284 6.716-15 15-15 8.284 0 15 6.716 15 15 0 8.284-6.716 15-15 15"/><path d="M25.657 20.307c0-.63.065-.965 1.034-.965h1.293V17h-2.07c-2.487 0-3.363 1.167-3.363 3.135v1.525H21v2.342h1.55v7.003h3.103v-7.003h2.072L28 21.66h-2.347l.004-1.353z"/></g></svg>