<?xml version="1.0" encoding="UTF-8" standalone="no"?>
<svg width="48px" height="48px" viewBox="0 0 48 48" version="1.1" xmlns="http://www.w3.org/2000/svg" xmlns:xlink="http://www.w3.org/1999/xlink">
    <!-- Generator: Sketch 45.2 (43514) - http://www.bohemiancoding.com/sketch -->
    <title>icon-camera</title>
    <desc>Created with Sketch.</desc>
    <defs></defs>
    <g id="Symbols" stroke="none" stroke-width="1" fill="none" fill-rule="evenodd">
        <g id="icon-camera" fill="#2D2D2D">
            <g transform="translate(10.000000, 11.166600)">
                <path d="M10,0.8332 C8.9,0.8332 7.53501221,1.68642441 7.20001221,2.73342441 L7.09002686,3.09340977 C6.75302686,4.14040977 6.1,4.8334 5,4.8334 L1.9998,4.8334 C0.8998,4.8334 -0.0002,5.7334 -0.0002,6.8334 C-0.0002,6.8334 -0.0002,12.0278667 -0.0002,14.8334 C-0.0002,17.6389333 -0.0002,22.8334 -0.0002,22.8334 C-0.0002,23.9334 0.8998,24.8334 1.9998,24.8334 L27,24.8334 C28.1,24.8334 29,23.9334 29,22.8334 L29,6.8334 C29,5.7334 28.1,4.8334 27,4.8334 L24,4.8334 C22.899,4.8334 22.2459731,4.14040977 21.9099731,3.09340977 L21.7968,2.7372 C21.4598,1.6902 20.101,0.8332 19,0.8332 L10,0.8332 Z M19.8928,3.3492 L20.0078,3.7082 C20.6118,5.5842 22.028,6.8334 24,6.8334 L27,6.8334 L27,22.8334 L1.9998,22.8334 L1.9998,6.8334 L5,6.8334 C6.972,6.8334 8.7218,5.5842 9.3258,3.7072 L9.4398,3.3492 C9.5108,3.1272 9.9148,2.8332 10.1478,2.8332 L19.1848,2.8332 C19.4178,2.8332 19.8218,3.1272 19.8928,3.3492 Z" id="Fill-3"></path>
                <path d="M14.5,17.8334 C16.9852814,17.8334 19,15.8186814 19,13.3334 C19,10.8481186 16.9852814,8.8334 14.5,8.8334 C12.0147186,8.8334 10,10.8481186 10,13.3334 C10,15.8186814 12.0147186,17.8334 14.5,17.8334 Z M14.5,19.8334 C10.9101491,19.8334 8,16.9232509 8,13.3334 C8,9.74354913 10.9101491,6.8334 14.5,6.8334 C18.0898509,6.8334 21,9.74354913 21,13.3334 C21,16.9232509 18.0898509,19.8334 14.5,19.8334 Z" id="Oval-7" fill-rule="nonzero"></path>
            </g>
        </g>
    </g>
</svg>