<svg width="48" height="48" viewBox="0 0 48 48" xmlns="http://www.w3.org/2000/svg"><title>icon-camera</title><g fill="#2D2D2D" fill-rule="evenodd"><path d="M20 12c-1.1 0-2.465.853-2.8 1.9l-.11.36C16.753 15.307 16.1 16 15 16h-3c-1.1 0-2 .9-2 2v16c0 1.1.9 2 2 2h25c1.1 0 2-.9 2-2V18c0-1.1-.9-2-2-2h-3c-1.101 0-1.754-.693-2.09-1.74l-.113-.356C31.46 12.857 30.1 12 29 12h-9zm9.893 2.516l.115.359C30.612 16.75 32.028 18 34 18h3v16H12V18h3c1.972 0 3.722-1.25 4.326-3.126l.114-.358c.07-.222.475-.516.708-.516h9.037c.233 0 .637.294.708.516z"/><path d="M24.5 29a4.5 4.5 0 1 0 0-9 4.5 4.5 0 0 0 0 9zm0 2a6.5 6.5 0 1 1 0-13 6.5 6.5 0 0 1 0 13z" fill-rule="nonzero"/></g></svg>